SplineFontDB: 3.0
FontName: LinBiolinumO
FullName: Linux Biolinum O
FamilyName: Linux Biolinum O
Weight: Book
Copyright: Linux Libertine by Philipp H. Poll,\nOpen Font under Terms of following Free Software Licenses:\nGPL (General Public License) with font-exception and OFL (Open Font License).\nCreated with FontForge (http://fontforge.sf.net)\nSept 2003, 2004, 2005, 2006, 2007, 2008, 2009, 2010, 2011,2012
UComments: "2003-08-29: Created.+AAoA-2004-07-25: v(1.0) release candidate+AAoA-2005-12-28: v(1.1.0) stable+AAoA-2006-01-01: v(2.0.0) stable+AAoA-2006-09-05: v(2.2.0) stable+AAoA-2006-12-04: v(2.3.0) stable+AAoA-2007-03-11: v(2.4.0) stable+AAoA-2007-12-00: v(2.7.0) stable+AAoA-2008-06-00: v(2.8.14) stable+AAoA" 
Version: 1.1.8
ItalicAngle: 0
UnderlinePosition: -98
UnderlineWidth: 40
Ascent: 754
Descent: 246
LayerCount: 2
Layer: 0 0 "Back"  1
Layer: 1 0 "Fore"  0
XUID: [1021 993 1524925707 2876416]
FSType: 0
OS2Version: 3
OS2_WeightWidthSlopeOnly: 0
OS2_UseTypoMetrics: 0
CreationTime: 1156455862
PfmFamily: 33
TTFWeight: 400
TTFWidth: 5
LineGap: 0
VLineGap: 0
OS2TypoAscent: 894
OS2TypoAOffset: 0
OS2TypoDescent: -246
OS2TypoDOffset: 0
OS2TypoLinegap: 0
OS2WinAscent: 894
OS2WinAOffset: 0
OS2WinDescent: 246
OS2WinDOffset: 0
HheadAscent: 894
HheadAOffset: 0
HheadDescent: -246
HheadDOffset: 0
OS2FamilyClass: 2050
OS2Vendor: 'PfEd'
Lookup: 1 0 0 "'sups' Hochgestellte"  {"'sups' Hochgestellte 1" ("superior" ) } ['sups' ('DFLT' <'dflt' > 'cyrl' <'dflt' > 'grek' <'dflt' > 'latn' <'AZE ' 'CRT ' 'DEU ' 'MOL ' 'ROM ' 'TRK ' 'dflt' > ) ]
Lookup: 1 0 0 "'sinf' Tiefgestellte"  {"'sinf' Wissenschaftliche Indices 1" ("inferior" ) } ['sinf' ('DFLT' <'dflt' > 'cyrl' <'dflt' > 'grek' <'dflt' > 'latn' <'AZE ' 'CRT ' 'DEU ' 'MOL ' 'ROM ' 'TRK ' 'dflt' > ) ]
Lookup: 260 0 0 "'mark' Markenpositionierung"  {"'mark' Unten Punkt"  } ['mark' ('DFLT' <'dflt' > 'cyrl' <'dflt' > 'grek' <'dflt' > 'latn' <'AZE ' 'CRT ' 'DEU ' 'MOL ' 'ROM ' 'TRK ' 'dflt' > ) ]

StartChar: u1D5A0
Encoding: 120224 120224 0
Width: 629
Flags: MW
TopAccentHorizontal: 322
HStem: -3 21G<22 66.5 90 104.177 499.931 511.5 588 604.5> 231 42<198.642 407.322> 638 20G<263 385>
DStem2: 16 -3 178.974 228.261 0.407548 0.913184<57.2509 287.455 329.137 596.593> 339 658 306.032 521.764 0.382928 -0.923778<113.228 379.463>
AnchorPoint: "unten_punkt" 270 -108 basechar 0
LayerCount: 2
Fore
SplineSet
407.3 275.5 m 1
 380.4 345.2 347.1 427.4 306 521.8 c 1
 304 521.8 l 1
 198.6 275.9 l 1
 220.6 274.7 274.1 273 303 273 c 0
 332.7 273 374.3 274 407.3 275.5 c 1
179 228.3 m 1
 143.3 140.8 112.4 58.3 96 -3 c 1
 84 0 62 0 51 0 c 0
 40 0 28 0 16 -3 c 1
 117 218 215 436 311 658 c 1
 339 658 l 1
 431 439 563 98 613 -3 c 1
 596 0 570 0 553 0 c 0
 536 0 520 0 503 -3 c 1
 496.9 19.2 474.3 97.2 425.3 228.3 c 1
 401 230 346 231 308 231 c 0
 273.5 231 204 230 179 228.3 c 1
EndSplineSet
EndChar

StartChar: u1D5A1
Encoding: 120225 120225 1
Width: 616
VWidth: 999
Flags: W
TopAccentHorizontal: 289
HStem: -3 43<174.577 403.148> 328 43<190 363.242> 605 43<172.065 358.947>
VStem: 104 86<52.3754 328 371 597.325> 408 87<424.724 559.411> 455 99<94.8914 252.437>
AnchorPoint: "unten_punkt" 275 -108 basechar 0
LayerCount: 2
Fore
SplineSet
190 559 m 2
 190 371 l 1
 268 371 l 2
 351 371 408 396 408 481 c 0
 408 583 337 605 281 605 c 0
 200 605 190 592.3 190 559 c 2
190 328 m 1
 190 88 l 2
 190 55 217 40 287 40 c 0
 431.2 40 455 95.9 455 165 c 0
 455 255 400 328 283 328 c 2
 190 328 l 1
147 645 m 0
 197 645 239 648 274 648 c 0
 460 648 495 560 495 493 c 0
 495 438 453 385 402 360 c 1
 489 335 554 280 554 184 c 0
 554 98 505 -3 306 -3 c 0
 217 -3 209 0 147 0 c 0
 112 0 95 -3 95 -3 c 1
 94 0 l 1
 102 54 104 125 104 200 c 2
 104 445 l 2
 104 520 102 588 94 645 c 1
 96 648 l 1
 96 648 113 645 147 645 c 0
EndSplineSet
EndChar

StartChar: u1D5A2
Encoding: 120226 120226 2
Width: 677
VWidth: 999
Flags: W
TopAccentHorizontal: 371
HStem: -10 51<292.131 490.773> 611 47<286.061 471.755>
VStem: 52 103<211.392 435.455>
AnchorPoint: "unten_punkt" 385 -110 basechar 0
LayerCount: 2
Fore
SplineSet
380 658 m 0
 502 658 598 608 598 608 c 1
 600 605 l 1
 589 562.5 585.6 545 582 494 c 1
 570 493 l 1
 529 575 456 611 366 611 c 0
 284 611 155 537 155 334 c 0
 155 178 248.2 41 375 41 c 0
 468 41 528 67 599 145 c 1
 606 142 l 1
 609.5 133 611.5 111 612.1 99.5 c 1
 545.3 18.7 458.4 -10 366 -10 c 0
 151 -10 52 142 52 315 c 0
 52 512 211 658 380 658 c 0
EndSplineSet
EndChar

StartChar: u1D5A3
Encoding: 120227 120227 3
Width: 710
VWidth: 999
Flags: W
TopAccentHorizontal: 309
HStem: -2 44<171.537 435.266> 604 44<172.393 392.698>
VStem: 104 86<49.3073 594.385> 555 103<179.784 425.325>
AnchorPoint: "unten_punkt" 282 -107 basechar 0
LayerCount: 2
Fore
SplineSet
190 82 m 2
 190 50 201 42 299 42 c 0
 440 42 555 82 555 284 c 0
 555 438 490 604 274 604 c 0
 225 604 190 599 190 564 c 2
 190 82 l 2
147 645 m 0
 211 645 248 648 312 648 c 0
 504 648 658 494 658 308 c 0
 658 62 471 -2 330 -2 c 0
 227 -2 218 0 147 0 c 0
 112 0 95 -3 95 -3 c 1
 94 0 l 1
 102 54 104 125 104 200 c 2
 104 445 l 2
 104 520 102 588 94 645 c 1
 96 648 l 1
 96 648 113 645 147 645 c 0
EndSplineSet
EndChar

StartChar: u1D5A4
Encoding: 120228 120228 4
Width: 538
VWidth: 999
Flags: W
TopAccentHorizontal: 284
HStem: 0 56<194.662 417.584> 317 50<190 404.78> 589 56<194.662 419.27>
VStem: 104 86<58.188 317 367 587.818>
AnchorPoint: "unten_punkt" 283 -107 basechar 0
LayerCount: 2
Fore
SplineSet
190 200 m 2
 190 183 191 80 198 56 c 1
 332 56 480 68 480 68 c 1
 482 64 l 1
 481 56 480 41 480 31 c 0
 480 21 481 14 482 0 c 1
 480 -3 l 1
 464 -1 441 0 420 0 c 2
 147 0 l 2
 112 0 95 -3 95 -3 c 1
 94 0 l 1
 102 54 104 125 104 200 c 2
 104 445 l 2
 104 520 102 588 94 645 c 1
 96 648 l 1
 96 648 113 645 147 645 c 2
 410 645 l 2
 431 645 454 646 470 648 c 1
 472 645 l 1
 471 631 470 615 470 607 c 0
 470 598 471 589 472 581 c 1
 470 577 l 1
 470 577 332 589 198 589 c 1
 191 565 190 462 190 445 c 2
 190 367 l 1
 308 367 354 372 413 377 c 1
 416 374 l 1
 414 365 413 351 413 342 c 0
 413 333 414 319 416 310 c 1
 413 307 l 1
 344 314 238 317 190 317 c 1
 190 200 l 2
EndSplineSet
EndChar

StartChar: u1D5A5
Encoding: 120229 120229 5
Width: 504
VWidth: 999
Flags: W
TopAccentHorizontal: 293
HStem: -3 21G<94 147 147 200> 317 50<190 404.78> 589 56<194.662 419.27>
VStem: 104 86<2.67992 317 367 587.818>
AnchorPoint: "unten_punkt" 207 -111 basechar 0
LayerCount: 2
Fore
SplineSet
407 645 m 2
 431 645 454 646 470 648 c 1
 472 645 l 1
 471 631 470 619 470 611 c 0
 470 602 471 589 472 581 c 1
 470 577 l 1
 470 577 332 589 198 589 c 1
 191 565 190 462 190 445 c 2
 190 367 l 1
 308 367 354 372 413 377 c 1
 416 374 l 1
 414 365 413 351 413 342 c 0
 413 333 414 319 416 310 c 1
 413 307 l 1
 344 314 238 317 190 317 c 1
 190 200 l 2
 190 125 192 57 200 0 c 1
 198 -3 l 1
 198 -3 181 0 147 0 c 0
 112 0 95 -3 95 -3 c 1
 94 0 l 1
 102 54 104 125 104 200 c 2
 104 445 l 2
 104 520 102 588 94 645 c 1
 96 648 l 1
 96 648 113 645 147 645 c 2
 407 645 l 2
EndSplineSet
EndChar

StartChar: u1D5A6
Encoding: 120230 120230 6
Width: 717
VWidth: 999
Flags: MW
TopAccentHorizontal: 379
HStem: -10 44<296.87 519.78> 614 44<295.445 484.524>
VStem: 52 103<200.39 438.829> 546 86<83.5114 304.327>
AnchorPoint: "unten_punkt" 381 -111 basechar 0
LayerCount: 2
Fore
SplineSet
546 117 m 2
 546 192 544 250 536 307 c 1
 538 310 l 1
 538 310 555 307 589 307 c 0
 624 307 641 310 641 310 c 1
 642 307 l 1
 634 254 632 212 632 137 c 2
 632 131 l 2
 632 120 633.3 93.7 642 83 c 1
 642 80 l 1
 574.5 23.4 492.5 -10 376 -10 c 0
 175 -10 52 144 52 317 c 0
 52 537 229 658 401 658 c 0
 523 658 629 608 629 608 c 1
 631 605 l 1
 620.3 567 614.6 540 611 489 c 1
 599 488 l 1
 554 564 477 614 387 614 c 0
 252 614 155 502 155 327 c 0
 155 195 221 34 399 34 c 0
 453 34 512 40 546 72 c 1
 546 117 l 2
EndSplineSet
EndChar

StartChar: u1D5A7
Encoding: 120231 120231 7
Width: 726
VWidth: 999
Flags: W
TopAccentHorizontal: 354
HStem: -3 21G<94 101 192 200 526 533 624 632> 321 44<190 536> 628 20G<94 102 193 200 526 534 625 632>
VStem: 104 86<2.67992 321 365 642.32> 536 86<2.67992 321 365 642.32>
AnchorPoint: "unten_punkt" 353 -107 basechar 0
LayerCount: 2
Fore
SplineSet
536 445 m 2
 536 520 534 588 526 645 c 1
 528 648 l 1
 540 646 567 645 579 645 c 0
 591 645 619 646 631 648 c 1
 632 645 l 1
 624 592 622 520 622 445 c 2
 622 200 l 2
 622 125 624 57 632 0 c 1
 630 -3 l 1
 618 -1 591 0 579 0 c 0
 567 0 539 -1 527 -3 c 1
 526 0 l 1
 534 54 536 125 536 200 c 2
 536 321 l 1
 190 321 l 1
 190 200 l 2
 190 125 192 57 200 0 c 1
 198 -3 l 1
 186 -1 159 0 147 0 c 0
 135 0 107 -1 95 -3 c 1
 94 0 l 1
 102 54 104 125 104 200 c 2
 104 445 l 2
 104 520 102 588 94 645 c 1
 96 648 l 1
 108 646 135 645 147 645 c 0
 159 645 187 646 199 648 c 1
 200 645 l 1
 192 592 190 520 190 445 c 2
 190 365 l 1
 536 365 l 1
 536 445 l 2
EndSplineSet
Colour: ff80cc
EndChar

StartChar: u1D5A8
Encoding: 120232 120232 8
Width: 294
VWidth: 999
Flags: W
TopAccentHorizontal: 152
HStem: -3 21G<94 102 192 200> 628 20G<94 102 192 200>
VStem: 104 86<2.67992 642.32>
AnchorPoint: "unten_punkt" 125.1 -95.4 basechar 0
LayerCount: 2
Fore
SplineSet
104 445 m 2
 104 520 102 588 94 645 c 1
 96 648 l 1
 108 646 135 645 147 645 c 0
 159 645 186 646 198 648 c 1
 200 645 l 1
 192 592 190 520 190 445 c 2
 190 200 l 2
 190 125 192 57 200 0 c 1
 198 -3 l 1
 186 -1 159 0 147 0 c 0
 135 0 108 -1 96 -3 c 1
 94 0 l 1
 102 54 104 125 104 200 c 2
 104 445 l 2
EndSplineSet
EndChar

StartChar: u1D5A9
Encoding: 120233 120233 9
Width: 320
VWidth: 999
Flags: W
TopAccentHorizontal: 181
HStem: -172 60<-12.1065 99.732> 628 20G<130 138 229 236>
VStem: 140 86<-29.7556 642.32>
LayerCount: 2
Fore
SplineSet
140 95 m 2
 140 445 l 2
 140 520 138 588 130 645 c 1
 132 648 l 1
 144 646 171 645 183 645 c 0
 195 645 223 646 235 648 c 1
 236 645 l 1
 228 592 226 520 226 445 c 2
 226 117 l 2
 226 2.5 216 -27 163 -96 c 0
 121 -150 68 -172 5 -172 c 0
 -14 -172 -32 -168 -40 -163 c 1
 -41 -160 l 1
 -30 -141 -20 -105 -13 -78 c 1
 -2 -77 l 1
 9 -97 27 -112 56 -112 c 0
 135 -112 140 7 140 95 c 2
EndSplineSet
EndChar

StartChar: u1D5AA
Encoding: 120234 120234 10
Width: 629
VWidth: 999
Flags: W
TopAccentHorizontal: 335
HStem: -3 21G<94 102 192 200 438 491.5 589.31 597.5> 628 20G<94 102 192 200 452.5 503.5 553 589>
VStem: 104 86<2.67992 642.32>
DStem2: 293 352 209 322 0.662528 -0.749037<0 415.76>
AnchorPoint: "unten_punkt" 342 -109 basechar 0
LayerCount: 2
Fore
SplineSet
104 445 m 2
 104 520 102 588 94 645 c 1
 96 648 l 1
 108 646 135 645 147 645 c 0
 159 645 186 646 198 648 c 1
 200 645 l 1
 192 592 190 520 190 445 c 2
 190 344.1 l 1
 195.1 344.6 205.1 346.9 212 353 c 0
 300 430 408 546 497 648 c 1
 510 645 533 645 546 645 c 0
 561 645 581 645 597 648 c 1
 509 571 361 433 293 354 c 1
 293 352 l 1
 607 -3 l 1
 588 0 564 0 545 0 c 0
 528 0 500 0 483 -3 c 1
 393 108 250 281 209 322 c 0
 204.2 326 195.1 328 190 328.7 c 1
 190 200 l 2
 190 125 192 57 200 0 c 1
 198 -3 l 1
 186 -1 159 0 147 0 c 0
 135 0 108 -1 96 -3 c 1
 94 0 l 1
 102 54 104 125 104 200 c 2
 104 445 l 2
EndSplineSet
Colour: ff80cc
EndChar

StartChar: u1D5AB
Encoding: 120235 120235 11
Width: 515
VWidth: 999
Flags: W
TopAccentHorizontal: 150
HStem: 0 61<195.662 422.907> 628 20G<95 103 194 201>
VStem: 105 86<62.1786 642.32>
AnchorPoint: "unten_punkt" 262 -110 basechar 0
LayerCount: 2
Fore
SplineSet
191 445 m 2
 191 200 l 2
 191 183 192 85 199 61 c 1
 333 61 481 83 481 83 c 1
 483 79 l 1
 482 71 481 54 481 44 c 0
 481 34 482 14 483 0 c 1
 481 -3 l 1
 465 -1 442 0 421 0 c 2
 148 0 l 2
 114 0 96 -3 96 -3 c 1
 95 0 l 1
 103 54 105 125 105 200 c 2
 105 445 l 2
 105 520 103 588 95 645 c 1
 97 648 l 1
 109 646 136 645 148 645 c 0
 160 645 188 646 200 648 c 1
 201 645 l 1
 193 592 191 520 191 445 c 2
EndSplineSet
EndChar

StartChar: u1D5AC
Encoding: 120236 120236 12
Width: 886
Flags: MW
TopAccentHorizontal: 457
HStem: -3 21G<69.5 83.5 121.5 134.5 383 470.005 707.673 722.5 802 812.5>
DStem2: 226 662 205.25 476.25 0.411818 -0.911266<160.722 543.932> 458.419 166 434 0 0.439345 0.898318<0 362.59> 726 662 659.476 472.949 0.139962 -0.990157<177.879 649.133>
AnchorPoint: "unten_punkt" 434 -110 basechar 0
LayerCount: 2
Fore
SplineSet
193 662 m 1
 226 662 l 1
 299.8 490.2 371.3 330 450 166.3 c 1
 458.4 166 l 1
 701 662 l 1
 726 662 l 1
 754 419 784 211 820 -3 c 1
 805 0 779 0 764 0 c 0
 749 0 730 0 715 -3 c 1
 700.3 162.8 680.7 315.2 659.5 472.9 c 1
 656 473 l 1
 577 316 506 164.2 434 0 c 1
 415 0 l 1
 351 155 280.8 317 205.2 476.2 c 1
 200.8 476.2 l 1
 176.3 325.1 142 102 127 -3 c 1
 116 0 108 0 97 0 c 0
 85 0 75 0 64 -3 c 1
 103 184 158 460 193 662 c 1
EndSplineSet
EndChar

StartChar: u1D5AD
Encoding: 120237 120237 13
Width: 718
VWidth: 999
Flags: MW
TopAccentHorizontal: 353
HStem: -3 14G<98 106 164 172 585 600> 628 20G<108 152 152 181.45 558 566 624 632>
VStem: 108 54<432.316 476.582> 568 54<419.52 642.32>
DStem2: 166 647 201 455 0.620566 -0.784154<137.385 620.953>
AnchorPoint: "unten_punkt" 356 -109 basechar 0
LayerCount: 2
Fore
SplineSet
108 645 m 1
 110 648 l 1
 110 648 118 645 152 645 c 0
 156.5 645 166 647 166 647 c 1
 509 203 l 2
 552.3 146.9 566.6 123.6 568 178 c 1
 568 445 l 2
 568 520.3 566 588 558 645 c 1
 560 648 l 1
 572 646 583 645 595 645 c 0
 607 645 618 646 630 648 c 1
 632 645 l 1
 616 423 617 249 612 21 c 0
 611 2 607 -10 593 -10 c 0
 577 -10 561 -1 550 14 c 2
 201 455 l 2
 163.9 503 162 500 162 439 c 2
 162 200 l 2
 162 125 164 57 172 0 c 1
 170 -3 l 1
 158 -1 147 0 135 0 c 0
 123 0 112 -1 100 -3 c 1
 98 0 l 1
 114 159 117 455 108 645 c 1
EndSplineSet
EndChar

StartChar: u1D5AE
Encoding: 120238 120238 14
Width: 741
VWidth: 999
Flags: W
TopAccentHorizontal: 375
HStem: -10 44<297.518 470.882> 614 44<271.342 456.336>
VStem: 52 103<199.871 439.073> 586 103<198.639 454.348>
AnchorPoint: "unten_punkt" 371 -113 basechar 0
LayerCount: 2
Fore
SplineSet
355 614 m 0
 259 614 155 537 155 327 c 0
 155 135 269 34 389 34 c 0
 503 34 586 131 586 310 c 0
 586 518 496 614 355 614 c 0
689 329 m 0
 689 129 560 -10 369 -10 c 0
 197 -10 52 113 52 310 c 0
 52 506 189 658 368 658 c 0
 548 658 689 527 689 329 c 0
EndSplineSet
EndChar

StartChar: u1D5AF
Encoding: 120239 120239 15
Width: 559
VWidth: 999
Flags: W
TopAccentHorizontal: 277
HStem: -3 21G<94 102 192 200> 276 43<190.832 365.053> 609 43<172.409 371.18>
VStem: 104 86<2.67993 286 323.159 597.325> 422 97<391.757 557.83>
AnchorPoint: "unten_punkt" 241 -110 basechar 0
LayerCount: 2
Fore
SplineSet
190 565 m 2
 190 329 l 1
 203 322 244 319 269 319 c 0
 366 319 422 356 422 471 c 0
 422 590 349 609 280 609 c 0
 208 609 190 594 190 565 c 2
104 445 m 2
 104 520 102 588 94 645 c 1
 96 648 l 1
 108 646 135 645 147 645 c 0
 177 645 261 652 287 652 c 0
 472 652 519 550 519 476 c 0
 519 391 456 276 274 276 c 0
 239 276 212 279 190 286 c 1
 190 200 l 2
 190 125 192 57 200 0 c 1
 198 -3 l 1
 186 -1 159 0 147 0 c 0
 135 0 108 -1 96 -3 c 1
 94 0 l 1
 102 54 104 125 104 200 c 2
 104 445 l 2
EndSplineSet
EndChar

StartChar: u1D5B0
Encoding: 120240 120240 16
Width: 741
VWidth: 999
Flags: W
ItalicCorrection: 89
TopAccentHorizontal: 346
HStem: -10 44<297.518 470.882> 614 44<271.342 456.336>
VStem: 52 103<199.871 439.073> 586 103<198.639 454.348>
LayerCount: 2
Fore
SplineSet
355 614 m 0
 259 614 155 537 155 327 c 0
 155 135 269 34 389 34 c 0
 503 34 586 131 586 310 c 0
 586 518 496 614 355 614 c 0
560.7 49.2 m 1
 618.3 17.4 700.3 -39.7 810 -77 c 1
 810 -83 l 1
 774 -102 735 -125 716 -140 c 1
 605.3 -77.1 613.7 -59.7 483.8 8.8 c 1
 448.9 -3.5 410.4 -10 369 -10 c 0
 197 -10 52 113 52 310 c 0
 52 506 189 658 368 658 c 0
 548 658 689 527 689 329 c 0
 689 207.3 641.2 108.1 560.7 49.2 c 1
EndSplineSet
Colour: ff80cc
EndChar

StartChar: u1D5B1
Encoding: 120241 120241 17
Width: 600
VWidth: 999
Flags: W
TopAccentHorizontal: 269
HStem: -3 21G<94 102 192 200 447.5 462.5 563 575> 286 40<190 281.527> 609 43<170.159 370.554>
VStem: 104 86<2.67993 286 326 603.161> 426 96<391.453 556.67>
AnchorPoint: "unten_punkt" 259 -111 basechar 0
LayerCount: 2
Fore
SplineSet
190 286 m 1
 190 200 l 2
 190 125 192 57 200 0 c 1
 198 -3 l 1
 186 -1 159 0 147 0 c 0
 135 0 108 -1 96 -3 c 1
 94 0 l 1
 102 54 104 125 104 200 c 2
 104 445 l 2
 104 520 102 588 94 645 c 1
 96 648 l 1
 108 646 135 645 147 645 c 0
 177 645 257 652 282 652 c 0
 345 652 421 649 469 604 c 0
 505 570 522 529 522 479 c 0
 522 397 476 345 422 318 c 0
 408 310.8 388.2 304.3 361.5 299 c 1
 424.8 214.7 525.1 56.5 575 0 c 1
 573 -3 l 1
 553 0 533 0 513 0 c 0
 494 0 472 0 453 -3 c 1
 442 31 394 118 358 176 c 0
 332.5 217.1 310.9 256.2 282.8 289.1 c 1
 255.8 287.1 225 286 190 286 c 1
283 609 m 0
 193 609 190 604 190 565 c 2
 190 326 l 1
 248 326 l 2
 345 326 426 356 426 478 c 0
 426 586 344 609 283 609 c 0
EndSplineSet
EndChar

StartChar: u1D5B2
Encoding: 120242 120242 18
Width: 506
VWidth: 999
Flags: W
TopAccentHorizontal: 261
HStem: -10 44<169.447 310.928> 614 44<184.14 324.623>
VStem: 70 81<443.835 563.163> 359 93<93.3874 227.952>
AnchorPoint: "unten_punkt" 245 -111 basechar 0
LayerCount: 2
Fore
SplineSet
242 34 m 0
 301 34 359 76 359 151 c 0
 359 236 307 269 242 296 c 0
 159 331 70 380 70 485 c 0
 70 558 121 616 180 641 c 0
 209 653 239 658 266 658 c 0
 383 658 425 613 425 613 c 1
 427 610 l 1
 418 580 408 546 404 510 c 1
 394 509 l 1
 367 571 313 614 258 614 c 0
 235 614 214 611 197 602 c 0
 171 588 151 548 151 512 c 0
 151 429 222 400 273 381 c 0
 353.9 350.8 452 297 452 181 c 0
 452 65 357 -10 234 -10 c 0
 117 -10 52 35 52 35 c 1
 50 38 l 1
 58 68 69 105 73 141 c 1
 83 142 l 1
 114 83 186 34 242 34 c 0
EndSplineSet
EndChar

StartChar: u1D5B3
Encoding: 120243 120243 19
Width: 540
VWidth: 999
Flags: W
TopAccentHorizontal: 268
HStem: -3 21G<217 225 315 323> 589 56<17.7551 222.338 317.662 522.245>
VStem: 227 86<2.67992 587.818>
AnchorPoint: "unten_punkt" 273 -107 basechar 0
LayerCount: 2
Fore
SplineSet
227 445 m 2
 227 462 226 565 219 589 c 1
 85 589 17 575 17 575 c 1
 15 579 l 1
 17 594 17 617 15 645 c 1
 17 648 l 1
 33 646 56 645 77 645 c 2
 463 645 l 2
 484 645 507 646 523 648 c 1
 525 645 l 1
 523 617 523 594 525 579 c 1
 523 575 l 1
 523 575 455 589 321 589 c 1
 314 565 313 462 313 445 c 2
 313 200 l 2
 313 125 315 57 323 0 c 1
 321 -3 l 1
 309 -1 282 0 270 0 c 0
 258 0 231 -1 219 -3 c 1
 217 0 l 1
 225 54 227 125 227 200 c 2
 227 445 l 2
EndSplineSet
EndChar

StartChar: u1D5B4
Encoding: 120244 120244 20
Width: 692
VWidth: 999
Flags: W
TopAccentHorizontal: 353
HStem: -10 56<271.245 458.071> 628 20G<94 102 192 200 534 542 600 608>
VStem: 104 86<137.545 642.32> 544 54<140.973 642.32>
AnchorPoint: "unten_punkt" 344 -109 basechar 0
LayerCount: 2
Fore
SplineSet
544 445 m 2
 544 520 542 588 534 645 c 1
 536 648 l 1
 548 646 559 645 571 645 c 0
 583 645 594 646 606 648 c 1
 608 645 l 1
 600 592 598 520 598 445 c 2
 598 295 l 2
 598 117 542 -10 337 -10 c 0
 247 -10 104 32 104 236 c 2
 104 445 l 2
 104 520 102 588 94 645 c 1
 96 648 l 1
 108 646 135 645 147 645 c 0
 159 645 186 646 198 648 c 1
 200 645 l 1
 192 592 190 520 190 445 c 2
 190 269 l 2
 190 215 190 46 358 46 c 0
 527 46 544 165 544 277 c 2
 544 445 l 2
EndSplineSet
EndChar

StartChar: u1D5B5
Encoding: 120245 120245 21
Width: 631
Flags: W
TopAccentHorizontal: 329
HStem: -10 21G<244 366> 628 20G<24.4 41 122.7 135.936 510.821 533.7 562.5 607>
AnchorPoint: "unten_punkt" 303 -108 basechar 0
LayerCount: 2
Fore
SplineSet
324 132.3 m 1
 395.7 298.3 493.6 519.4 528 648 c 1
 539.4 646 562 645 573 645 c 0
 582 645 601 646 613 648 c 1
 512 427 414 212 318 -10 c 1
 290 -10 l 1
 198 209 66 547 16 648 c 1
 32.8 646.2 60 645 76 645 c 0
 91.4 645 114.4 646.2 131 648 c 1
 140.9 613.4 190.8 436.1 322 132.3 c 1
 324 132.3 l 1
EndSplineSet
EndChar

StartChar: u1D5B6
Encoding: 120246 120246 22
Width: 951
Flags: MW
TopAccentHorizontal: 429
HStem: -10 21G<244 326.877 570 686> 628 20G<24.5 41 117.5 131 374.5 387 472.5 488 831 854 882.5 927>
AnchorPoint: "unten_punkt" 449 -107 basechar 0
LayerCount: 2
Fore
SplineSet
644 132 m 1
 716 298 814 519 848 648 c 1
 860 645 887 645 898 645 c 0
 909 645 921 645 933 648 c 1
 832 427 734 212 638 -10 c 1
 610 -10 l 1
 571.4 98.6 523 231.5 478.5 351.6 c 1
 318 -10 l 1
 290 -10 l 1
 198 209 66 547 16 648 c 1
 33 645 59 645 76 645 c 0
 93 645 109 645 126 648 c 1
 136 613 188 434 323 123 c 1
 325 123 l 1
 364 213.4 411.4 321.3 452.3 422.1 c 1
 415.4 520.9 383.7 604.3 366 648 c 1
 383 645 409 645 426 645 c 0
 443 645 464 645 481 648 c 1
 495 585 539 435 642 132 c 1
 644 132 l 1
EndSplineSet
EndChar

StartChar: u1D5B7
Encoding: 120247 120247 23
Width: 581
Flags: W
TopAccentHorizontal: 331
HStem: -3 21G<28.5 36.6457 101.5 134.298 419.617 457 520.843 555> 628 20G<36.5 41.2125 132 156.316 436.407 469.5 525.709 542.5>
AnchorPoint: "unten_punkt" 307 -107 basechar 0
LayerCount: 2
Fore
SplineSet
564 -3 m 1
 546 0 524 0 506 0 c 0
 488 0 466 0 448 -3 c 1
 395.7 97.4 338.3 178.3 274.4 274.9 c 1
 218.1 189.2 160.1 95.1 107 -3 c 1
 96 0 77 0 65 0 c 0
 54 0 34 0 23 -3 c 1
 244 321 l 1
 28 648 l 1
 45 645 67 645 84 645 c 0
 101 645 123 645 141 648 c 1
 169.8 588.2 236.5 491.2 302 390.8 c 1
 385.6 511.8 409.8 547.8 464 648 c 1
 475 645 495 645 506 645 c 0
 517 645 537 645 548 648 c 1
 504.8 587.2 422.9 479.6 331.5 345.4 c 1
 418.3 211.9 483 111.4 564 -3 c 1
EndSplineSet
EndChar

StartChar: u1D5B8
Encoding: 120248 120248 24
Width: 582
Flags: W
TopAccentHorizontal: 293
HStem: -3 21G<242.5 246 334 338> 628 20G<24.5 36 121.5 157 455 486 503.5 557.5>
VStem: 247 86<-0.370972 307.229>
AnchorPoint: "unten_punkt" 295 -109 basechar 0
LayerCount: 2
Fore
SplineSet
333 285 m 1
 334 186 336 45 340 -3 c 1
 328 -1 302 0 290 0 c 0
 278 0 252 -1 240 -3 c 1
 245 52 247 177 247 275 c 1
 209 340 56 588 16 648 c 1
 33 646 56 645 73 645 c 0
 90 645 113 646 130 648 c 1
 184 543 242 449 305 340 c 1
 363 431 430 543 480 648 c 1
 492 646 509 645 522 645 c 0
 534 645 551 646 564 648 c 1
 443 463 374 365 333 285 c 1
EndSplineSet
EndChar

StartChar: u1D5B9
Encoding: 120249 120249 25
Width: 622
VWidth: 999
Flags: W
TopAccentHorizontal: 339
HStem: 0 54<187 403.618> 591 54<220.043 432.234>
DStem2: 69 38 192 72 0.563479 0.82613<79.903 663.212>
AnchorPoint: "unten_punkt" 307 -107 basechar 0
LayerCount: 2
Fore
SplineSet
187 54 m 1
 318 54 567 75 567 75 c 1
 569 72 l 1
 568 64 567 49 567 39 c 0
 567 29 568 14 569 0 c 1
 567 -3 l 1
 551 -1 531.8 0 496 0 c 2
 133 0 l 2
 103 0 46 -3 46 -3 c 1
 43 1 l 1
 54 15 63 30 69 38 c 2
 438 579 l 2
 443.2 586.6 440 591 435 591 c 0
 334.5 591 216.5 581.5 80 570 c 1
 78 573 l 1
 79 581 80 596 80 606 c 0
 80 616 79 631 78 645 c 1
 80 648 l 1
 96 646 119 645 141 645 c 2
 445 645 l 2
 476 645 554.5 648.8 571 651 c 0
 575.5 651 577 649 577 645 c 0
 577 634 567 619 547 591 c 2
 192 72 l 2
 187.3 65.1 187 59 187 54 c 1
EndSplineSet
EndChar

StartChar: u1D5BA
Encoding: 120250 120250 26
Width: 481
VWidth: 999
Flags: W
TopAccentHorizontal: 222
HStem: -10 51<143.58 256.585 377.751 457.24> 394 45<157.262 280.562>
VStem: 45 81<59.6871 162.517> 311 79<78.8114 225 264.049 362.994>
DStem2: 211 243 225 202 0.975441 0.220261<-76.3759 92.604>
AnchorPoint: "unten_punkt" 207.8 -108 basechar 0
LayerCount: 2
Fore
SplineSet
310 225 m 1
 225 202 l 2
 147 181 126 147 126 102 c 0
 126 71 155 41 200 41 c 0
 230 41 264 59 292 80 c 0
 300 86 306 93 306 106 c 2
 310 225 l 1
310.1 48 m 1
 306 48 l 1
 253 3 225 -10 170 -10 c 0
 96 -10 45 24 45 98 c 0
 45 166 109 220 211 243 c 2
 304 264 l 2
 307 265 311 269 311 276 c 0
 311 389 251 394 215 394 c 0
 167 394 133 354 105 309 c 1
 92 310 l 1
 75 377 l 1
 78 381 l 1
 103 402 149 439 225 439 c 0
 301 439 390 412 390 277 c 0
 390 266 387.2 155 387.2 126 c 0
 387.2 81.5 393.7 57.3 403.9 48 c 0
 410 42.4 423.3 40.5 433.2 40.5 c 0
 440.8 40.5 449.3 41.9 460.2 45.7 c 1
 467.6 21 l 1
 444 -4 413.2 -10 388 -10 c 0
 351.4 -10 321.5 8.9 310.1 48 c 1
EndSplineSet
Substitution2: "'sups' Hochgestellte 1" u1D5BA.superior
Substitution2: "'sinf' Wissenschaftliche Indices 1" u1D5BA.inferior
EndChar

StartChar: u1D5BB
Encoding: 120251 120251 27
Width: 504
VWidth: 999
Flags: W
TopAccentHorizontal: 283
HStem: -10 40<196.823 319.151> 399 40<205.929 326.332> 678 20G<146.465 162.167>
VStem: 77 61<4.06622 39> 82 80<59.4722 360.298 389 672.977> 382 89<116.35 330.17>
AnchorPoint: "unten_punkt" 241 -108 basechar 0
LayerCount: 2
Fore
SplineSet
162 81 m 1
 182 56 219 30 250 30 c 0
 345 30 382 100 382 224 c 0
 382 348.7 328.1 399 267 399 c 0
 226 399 201 380 162 340 c 1
 162 81 l 1
162 500 m 2
 162 389 l 1
 196 426 239 439 287 439 c 0
 384 439 471 354 471 232 c 0
 471 62 358 -10 256 -10 c 0
 213 -10 167 14 138 39 c 1
 127.5 19 116 2 105 -10 c 1
 94.5 -10 83 -8 77 -2 c 1
 81.2 19.8 82 34 82 73 c 2
 82 482 l 2
 82 558 77.7 632.3 70 675 c 1
 72 678 l 1
 112.5 681 133.9 688 159 698 c 1
 165.3 698 168 695 168 688 c 0
 163.3 626.7 162 574 162 500 c 2
EndSplineSet
Substitution2: "'sinf' Wissenschaftliche Indices 1" u1D5BB.inferior
Substitution2: "'sups' Hochgestellte 1" u1D5BB.superior
EndChar

StartChar: u1D5BC
Encoding: 120252 120252 28
Width: 429
VWidth: 999
Flags: W
TopAccentHorizontal: 227
HStem: -10 50<190.47 329.737> 399 40<192.359 303.419>
VStem: 38 88<116.087 315.617>
AnchorPoint: "unten_punkt" 219.4 -100.4 basechar 0
LayerCount: 2
Fore
SplineSet
250 399 m 0
 184 399 126 333 126 223 c 0
 126 106 183 40 256 40 c 0
 293.2 40 325 48 363 82 c 1
 367 82 l 1
 386 61 l 1
 346 10 299 -10 239 -10 c 0
 117 -10 38 78.9 38 218 c 0
 38 354 147 439 251 439 c 0
 301 439 353 427 384 411 c 1
 386 408 l 1
 363 326 l 1
 350 325 l 1
 323.5 370.5 288.5 399 250 399 c 0
EndSplineSet
Substitution2: "'sinf' Wissenschaftliche Indices 1" u1D5BC.inferior
Substitution2: "'sups' Hochgestellte 1" u1D5BC.superior
EndChar

StartChar: u1D5BD
Encoding: 120253 120253 29
Width: 530
VWidth: 999
Flags: W
TopAccentHorizontal: 240
HStem: -10 52<186.632 307.002> -3 21G<374 383.667 449.5 458> 399 40<202.018 328.515> 678 20G<428.466 444.167>
VStem: 51 87<104.723 316.169> 361 80<90.2803 370.032 417 672.977>
AnchorPoint: "unten_punkt" 242 -107 basechar 0
LayerCount: 2
Fore
SplineSet
361 113 m 1
 361 341 l 1
 337 379 313 399 266 399 c 0
 217.6 399 138 371 138 221 c 0
 138 96 184 42 238 42 c 0
 278.5 42 324.5 66.5 361 113 c 1
361 58 m 1
 325 11.5 280 -10 232 -10 c 0
 124 -10 51 90 51 213 c 0
 51 349 146.8 439 277 439 c 0
 297 439 338 430 361 417 c 1
 361 482 l 2
 361 558 359.7 632.3 352 675 c 1
 354 678 l 1
 394.5 681 415.9 688 441 698 c 1
 447.3 698 450 695 450 688 c 0
 445 626.3 441 574 441 500 c 2
 441 192 l 2
 441 117 450 43 458 0 c 1
 456 -3 l 1
 443 -1 424.1 0 411.5 0 c 0
 397 0 390.3 -1.3 377 -3 c 0
 371 -3 368 -2 368 0 c 2
 363 58 l 1
 361 58 l 1
EndSplineSet
Substitution2: "'sinf' Wissenschaftliche Indices 1" u1D5BD.inferior
Substitution2: "'sups' Hochgestellte 1" u1D5BD.superior
EndChar

StartChar: u1D5BE
Encoding: 120254 120254 30
Width: 453
VWidth: 999
Flags: W
TopAccentHorizontal: 245
HStem: -10 59<180.536 330.136> 233 40<125 322.997> 399 40<182.373 286.139>
VStem: 34 88<110.038 233 273 315.973> 323 89<244.5 350.727>
AnchorPoint: "unten_punkt" 237 -108 basechar 0
LayerCount: 2
Fore
SplineSet
125 273 m 1
 309 273 l 2
 319 273 323 278 323 287 c 0
 323 362 278.5 399 239 399 c 0
 207.5 399 142 377 125 273 c 1
392 104 m 1
 412 79 l 1
 374 27 310 -10 238 -10 c 0
 170.6 -10 113.4 14.7 79 56 c 0
 45.5 96.2 34 152.3 34 209 c 0
 34 356 136 439 239 439 c 0
 371 439 412 334 412 250 c 0
 412 239 405 233 394 233 c 2
 122 233 l 1
 122 174.9 128.4 134.1 146 106 c 0
 173.5 62 220.8 49 255 49 c 0
 310 49 357 66 392 104 c 1
EndSplineSet
Substitution2: "'sups' Hochgestellte 1" u1D5BE.superior
Substitution2: "'sinf' Wissenschaftliche Indices 1" u1D5BE.inferior
EndChar

StartChar: u1D5BF
Encoding: 120255 120255 31
Width: 323
VWidth: 999
Flags: W
TopAccentHorizontal: 239
HStem: -3 21G<89 97 181 189> 385 44<29.4741 99 179 299.596> 602 21G<288.5 305> 639 59<189.982 282.431>
VStem: 99 80<2.6792 385 429.004 596.483>
AnchorPoint: "unten_punkt" 132 -111 basechar 0
LayerCount: 2
Fore
SplineSet
99 429 m 1
 99 468 l 2
 99 546 105 575 135 621 c 0
 168.2 671.9 209 698 272 698 c 0
 291 698 314 693 322 688 c 1
 323 685 l 1
 315.5 663 308.5 631.5 305 603 c 1
 294 602 l 1
 283 622 260 639 231 639 c 0
 186 639 173 597 173 534 c 0
 173 516 179 474 179 438 c 2
 179 429 l 1
 231 429 l 2
 254 429 283 430.3 301 431 c 1
 306 424 l 1
 300 409.3 297 399 294 383 c 1
 280.7 384.3 246 385 222 385 c 2
 179 385 l 1
 179 199 l 2
 179 124 180.5 57 189 0 c 1
 187 -3 l 1
 175 -1 151 0 139 0 c 0
 127 0 103 -1 91 -3 c 1
 89 0 l 1
 97.5 53.5 99 124 99 199 c 2
 99 385 l 1
 98 385 l 2
 75 385 42 384.3 24 383 c 1
 19 390 l 1
 28.7 405 34.3 414.7 41 431 c 1
 54.2 429.2 77.3 429 99 429 c 1
EndSplineSet
Substitution2: "'sups' Hochgestellte 1" u1D5BF.superior
Substitution2: "'sinf' Wissenschaftliche Indices 1" u1D5BF.inferior
EndChar

StartChar: u1D5C0
Encoding: 120256 120256 32
Width: 499
VWidth: 999
Flags: W
TopAccentHorizontal: 220
HStem: -237 43<140.309 341.162> -15 62<136.804 254.33> -12 66<174.316 367.191> 136 40<165.212 281.953> 401 38<167.383 278.422>
VStem: 32 69<-158.235 -60.0017> 55 78<208.143 363.302> 62 61<52.8771 126.198> 312 78<209.177 369.538> 400 73<-149.549 -43.25>
AnchorPoint: "unten_punkt" 225 -88 basechar 0
LayerCount: 2
Fore
SplineSet
101 -104 m 0
 101 -172 167 -194 232 -194 c 0
 318 -194 400 -162 400 -101 c 0
 400 -75 390 -46 361 -29 c 0
 333.6 -12.9 303 -12 255 -12 c 0
 241.2 -12 195.5 -15 166 -15 c 1
 131 -34 101 -70.9 101 -104 c 0
390 285 m 0
 390 206.2 328 136 224 136 c 0
 193.9 136 163 143 150 150 c 1
 128 131 123 114 123 94 c 0
 123 51 153 47 181 47 c 0
 186 47 196 48 210 49 c 0
 233 52 273 54 290 54 c 0
 325 54 393.5 53 431 21 c 0
 459 -2.9 473 -33.9 473 -78 c 0
 473 -171.7 380.1 -237 224 -237 c 0
 118 -237 32 -202.7 32 -124 c 0
 32 -105.3 42.5 -77 55 -58 c 1
 80.9 -38 112 -18.7 139.9 -7.3 c 1
 86 2 62 38 62 79 c 0
 62 113 97 142 126 162 c 1
 98 178 55 212 55 287 c 0
 55 386.1 146 439 225 439 c 0
 246.5 439 268.4 436 286.3 430.4 c 1
 360.9 434.3 396.2 444.9 444 449 c 1
 447 446 l 1
 445 437 444 429 444 420 c 0
 444 411 445 403 447 394 c 1
 444 391 l 1
 402.8 395.2 369.7 399 339.6 401.4 c 1
 363 386 390 354 390 285 c 0
312 284 m 0
 312 355 286 401 221 401 c 0
 163 401 133 358 133 292 c 0
 133 223 155 176 227 176 c 0
 287 176 312 223.3 312 284 c 0
EndSplineSet
Substitution2: "'sinf' Wissenschaftliche Indices 1" u1D5C0.inferior
Substitution2: "'sups' Hochgestellte 1" u1D5C0.superior
EndChar

StartChar: u1D5C1
Encoding: 120257 120257 33
Width: 549
VWidth: 999
Flags: W
TopAccentHorizontal: 307
HStem: -3 21G<81 89 171 179 378 386 468 476> 379 60<258.668 370.026> 678 20G<157.465 173.167>
VStem: 90 80<2.67606 320.103 352 672.976> 387 80<2.67606 363.729>
AnchorPoint: "unten_punkt" 266 -111 basechar 0
LayerCount: 2
Fore
SplineSet
170 352 m 1
 172 349 l 1
 236 424 307 439 345 439 c 0
 435 439 469 385 469 281 c 0
 469 249 467 212 467 180 c 0
 467 104 468 57.2 476 0 c 1
 474 -3 l 1
 462 -1 439 0 427 0 c 0
 415 0 392 -1 380 -3 c 1
 378 0 l 1
 386 53.8 387 105 387 180 c 2
 387 278 l 2
 387 359 366 379 315 379 c 0
 279.5 379 221 357 170 297 c 1
 170 180 l 2
 170 104 171.5 57.2 179 0 c 1
 177 -3 l 1
 165 -1 142 0 130 0 c 0
 118 0 95 -1 83 -3 c 1
 81 0 l 1
 88.8 56 90 105.5 90 180 c 2
 90 481 l 2
 90 557 88.7 632.3 81 675 c 1
 83 678 l 1
 123.5 681 144.9 688 170 698 c 1
 176.3 698 179 695 179 688 c 0
 174.2 626.5 170 575 170 501 c 2
 170 352 l 1
EndSplineSet
Substitution2: "'sinf' Wissenschaftliche Indices 1" u1D5C1.inferior
Substitution2: "'sups' Hochgestellte 1" u1D5C1.superior
EndChar

StartChar: u1D5C2
Encoding: 120258 120258 34
Width: 260
VWidth: 999
Flags: W
TopAccentHorizontal: 131
HStem: -3 21<81 89 171 179> 413 20<158.667 173.917> 546 102<89.735 172.265>
VStem: 80 102<555.735 638.265> 90 80<2.65714 420.159>
AnchorPoint: "unten_punkt" 130 -107 basechar 0
LayerCount: 2
Fore
SplineSet
80 597 m 0
 80 624 104 648 131 648 c 0
 158 648 182 624 182 597 c 0
 182 570 158 546 131 546 c 0
 104 546 80 570 80 597 c 0
90 235 m 2
 90 310 87.3 386.2 81 429 c 1
 83 432 l 1
 104.2 430.3 147.3 430.7 170 433 c 0
 177.8 433 179 432 179 423 c 0
 172.5 362 170 326 170 251 c 2
 170 180 l 2
 170 104 171.8 56.8 179 0 c 1
 177 -3 l 1
 165 -1 142 0 130 0 c 0
 118 0 95 -1 83 -3 c 1
 81 0 l 1
 88.2 54 90 105 90 180 c 2
 90 235 l 2
EndSplineSet
Substitution2: "'sups' Hochgestellte 1" u1D5C2.superior
Substitution2: "'sinf' Wissenschaftliche Indices 1" u1D5C2.inferior
Colour: ff00ff
EndChar

StartChar: u1D5C3
Encoding: 120259 120259 35
Width: 272
VWidth: 999
Flags: W
TopAccentHorizontal: 140
HStem: -216 60<-4.82593 72.6418> 413 20<170.667 185.917> 546 102<99.735 182.265>
VStem: 90 102<555.735 638.265> 102 80<-87.6562 420.159>
LayerCount: 2
Fore
SplineSet
90 597 m 0
 90 624 114 648 141 648 c 0
 168 648 192 624 192 597 c 0
 192 570 168 546 141 546 c 0
 114 546 90 570 90 597 c 0
182 251 m 2
 182 120 l 2
 182 -30 168.6 -87 138 -135 c 0
 110 -179 66 -216 3 -216 c 0
 -16 -216 -32 -212 -40 -207 c 1
 -41 -204 l 1
 -37 -189 -37 -142 -37 -115 c 1
 -21 -111 l 1
 -10 -131 10 -156 39 -156 c 0
 95 -156 102 -40.6 102 96 c 2
 102 235 l 2
 102 310 99.3 386.2 93 429 c 1
 95 432 l 1
 116.2 430.3 159.3 430.7 182 433 c 0
 189.8 433 191 432 191 423 c 0
 184.5 362 182 326 182 251 c 2
EndSplineSet
Substitution2: "'sups' Hochgestellte 1" u1D5C3.superior
Substitution2: "'sinf' Wissenschaftliche Indices 1" u1D5C3.inferior
Colour: ff00ff
EndChar

StartChar: u1D5C4
Encoding: 120260 120260 36
Width: 503
VWidth: 999
Flags: MW
TopAccentHorizontal: 281
HStem: -3 21G<80 88 172 180 334 375.667 489.5 496> 210 30.1<170 210.585> 412 20G<463.5 475> 678 20G<154.465 170.167>
VStem: 90 80<2.67975 209.983 240.082 672.977>
AnchorPoint: "unten_punkt" 268 -107 basechar 0
LayerCount: 2
Fore
SplineSet
90 200 m 2
 90 482 l 2
 90 558 88.7 632.3 81 675 c 1
 83 678 l 1
 123.5 681 144.9 688 170 698 c 1
 176.3 698 179 695 179 688 c 0
 174.3 624.7 170 575 170 500 c 2
 170 240.1 l 1
 183 241.2 201.3 245.3 214 255 c 0
 253.6 285.5 328.9 366.5 372 429 c 1
 399 429 454 429 473 432 c 1
 475 429 l 1
 410 373.9 312.4 278.9 273 238 c 1
 368.4 122.8 421.6 78.6 496 0 c 1
 494 -3 l 1
 485 -1.2 450.7 0 434 0 c 0
 417 0 383.3 -1.2 368 -3 c 1
 300 95 276 131 211 199 c 0
 202.4 206.7 178.2 209.8 170 210 c 1
 170 200 l 2
 170 124.8 171.2 57 179 0 c 1
 177 -3 l 1
 165 -1 142 0 130 0 c 0
 118 0 95 -1 83 -3 c 1
 81 0 l 1
 88.5 53.5 90 125.5 90 200 c 2
EndSplineSet
Substitution2: "'sinf' Wissenschaftliche Indices 1" u1D5C4.inferior
Substitution2: "'sups' Hochgestellte 1" u1D5C4.superior
Colour: ff80cc
EndChar

StartChar: u1D5C5
Encoding: 120261 120261 37
Width: 252
VWidth: 999
Flags: MW
TopAccentHorizontal: 130
HStem: -3 21G<80 88 172 180> 678 20G<154.465 170.167>
VStem: 90 80<2.67975 672.977>
AnchorPoint: "unten_punkt" 135 -107 basechar 0
LayerCount: 2
Fore
SplineSet
90 200 m 2
 90 482 l 2
 90 558 88.7 632.3 81 675 c 1
 83 678 l 1
 123.5 681 144.9 688 170 698 c 1
 176.3 698 179 695 179 688 c 0
 174.3 624.7 170 575 170 500 c 2
 170 200 l 2
 170 124.8 171.2 57 179 0 c 1
 177 -3 l 1
 165 -1 142 0 130 0 c 0
 118 0 95 -1 83 -3 c 1
 81 0 l 1
 88.5 53.5 90 125.5 90 200 c 2
EndSplineSet
Substitution2: "'sups' Hochgestellte 1" u1D5C5.superior
Substitution2: "'sinf' Wissenschaftliche Indices 1" u1D5C5.inferior
EndChar

StartChar: u1D5C6
Encoding: 120262 120262 38
Width: 807
VWidth: 999
Flags: MW
TopAccentHorizontal: 388
HStem: -3 21G<72 80 164 172 356 364 448 456 642 650 734 742> 379 60<251.282 348.339 514.872 632.568>
VStem: 82 80<2.6647 320.149> 366 80<2.6647 318.438> 652 80<2.6647 359.671>
CounterMasks: 1 38
AnchorPoint: "unten_punkt" 387 -105 basechar 0
LayerCount: 2
Fore
SplineSet
162 352 m 1
 165 349 l 1
 212 399 271 439 333 439 c 0
 389 439 430 408 439 360 c 1
 496 420 554 439 608 439 c 0
 716 439 732 369 732 280 c 2
 732 180 l 2
 732 104 733 57 741 0 c 1
 739 -3 l 1
 727 -1 704 0 692 0 c 0
 680 0 657 -1 645 -3 c 1
 643 0 l 1
 651 54 652 105 652 180 c 2
 652 290 l 2
 652 357 626 379 572 379 c 0
 533 379 493 372 445 319 c 1
 446 307 446 295 446 281 c 2
 446 180 l 2
 446 104 447 57 455 0 c 1
 453 -3 l 1
 441 -1 418 0 406 0 c 0
 394 0 371 -1 359 -3 c 1
 357 0 l 1
 365 54 366 105 366 180 c 2
 366 290 l 2
 366 357 338 379 300 379 c 0
 265 379 209 349 162 301 c 1
 162 180 l 2
 162 104 163 57 171 0 c 1
 169 -3 l 1
 157 -1 134 0 122 0 c 0
 110 0 87 -1 75 -3 c 1
 73 0 l 1
 81 54 82 105 82 180 c 2
 82 235 l 2
 82 310 80 385.7 73 429 c 1
 75 432 l 1
 97.7 429.7 133.5 430.5 156 435 c 0
 160.7 435 162 432.7 162 425 c 2
 162 352 l 1
EndSplineSet
Substitution2: "'sinf' Wissenschaftliche Indices 1" u1D5C6.inferior
Substitution2: "'sups' Hochgestellte 1" u1D5C6.superior
EndChar

StartChar: u1D5C7
Encoding: 120263 120263 39
Width: 539
VWidth: 999
Flags: MW
TopAccentHorizontal: 253
HStem: -3 21G<74 82 164 172 371 379 461 469> 379 60<251.568 363.025>
VStem: 83 80<2.6647 317.916> 380 80<2.6647 363.729>
AnchorPoint: "unten_punkt" 253 -111 basechar 0
LayerCount: 2
Fore
SplineSet
460 180 m 0
 460 104 461.2 57 469 0 c 1
 467 -3 l 1
 455 -1 432 0 420 0 c 0
 408 0 385 -1 373 -3 c 1
 371 0 l 1
 378.2 53.8 380 105 380 180 c 2
 380 278 l 2
 380 359 359 379 308 379 c 0
 272 379 214 357 163 297 c 1
 163 180 l 2
 163 104 164 57 172 0 c 1
 170 -3 l 1
 158 -1 135 0 123 0 c 0
 111 0 88 -1 76 -3 c 1
 74 0 l 1
 82 54 83 105 83 180 c 2
 83 235 l 2
 83 310 81 385.7 74 429 c 1
 76 432 l 1
 98.7 429.7 134.5 430.5 157 435 c 0
 161.7 435 162.8 432.7 163 425 c 2
 163 352 l 1
 165 349 l 1
 229 424 300 439 338 439 c 0
 428 439 462 385 462 281 c 0
 462 249 460 212 460 180 c 0
EndSplineSet
Substitution2: "'sinf' Wissenschaftliche Indices 1" u1D5C7.inferior
Substitution2: "'sups' Hochgestellte 1" u1D5C7.superior
EndChar

StartChar: u1D5C8
Encoding: 120264 120264 40
Width: 500
VWidth: 999
Flags: W
TopAccentHorizontal: 245
HStem: -10 40<195.326 314.337> 399 40<184.058 317.876>
VStem: 38 88<109.697 316.694> 374 88<108.595 325.77>
AnchorPoint: "unten_punkt" 247.8 -107 basechar 0
LayerCount: 2
Fore
SplineSet
38 205 m 0
 38 347 123 439 254 439 c 0
 389 439 462 350 462 214 c 0
 462 83 382 -10 250 -10 c 0
 117 -10 38 85 38 205 c 0
247 399 m 0
 153 399 126 309 126 222 c 0
 126 145 153 30 259 30 c 0
 326 30 374 100.9 374 196 c 0
 374 317 353 399 247 399 c 0
EndSplineSet
Substitution2: "'sups' Hochgestellte 1" u1D5C8.superior
Substitution2: "'sinf' Wissenschaftliche Indices 1" u1D5C8.inferior
EndChar

StartChar: u1D5C9
Encoding: 120265 120265 41
Width: 523
VWidth: 999
Flags: MW
TopAccentHorizontal: 279
HStem: -235 21G<72 80 164 172> -10 40<190.738 319.706> 393 46<230.156 339.496>
VStem: 82 80<-229.32 12 54.3189 329.453> 385 88<116.382 333.936>
LayerCount: 2
Fore
SplineSet
162 294 m 1
 162 75 l 1
 197 34 239 30 255 30 c 0
 362 30 385 136 385 218 c 0
 385 331 350 393 282 393 c 0
 243 393 184 347 162 294 c 1
162 352 m 1
 164 349 l 1
 210 419 260 439 299 439 c 0
 411 439 473 337 473 231 c 0
 473 90.1 393 -10 261 -10 c 0
 225 -10 188 -2 162 12 c 1
 162 -32 l 2
 162 -107.2 163.8 -175 171 -232 c 1
 169 -235 l 1
 157 -233 134 -232 122 -232 c 0
 110 -232 87 -233 75 -235 c 1
 73 -232 l 1
 80.2 -178.2 82 -106.5 82 -32 c 2
 82 235 l 2
 82 310 80 385.7 73 429 c 1
 75 432 l 1
 97.7 429.7 133.5 430.5 156 435 c 0
 160.7 435 162 432.7 162 425 c 2
 162 352 l 1
EndSplineSet
Substitution2: "'sinf' Wissenschaftliche Indices 1" u1D5C9.inferior
Substitution2: "'sups' Hochgestellte 1" u1D5C9.superior
EndChar

StartChar: u1D5CA
Encoding: 120266 120266 42
Width: 522
VWidth: 999
Flags: W
TopAccentHorizontal: 249
HStem: -235 21G<351 400 400 449> -10 44<199.678 341.807> 399 40<200.321 352.503> 412 20G<435.667 449>
VStem: 49 88<107.559 318.361> 360 80<-229.32 23 53.3074 385.499>
LayerCount: 2
Fore
SplineSet
357 376 m 1
 335.3 394 306.7 399 263 399 c 0
 189 399 137 331 137 227 c 0
 137 76 208 34 266 34 c 0
 285 34 334 46 360 66 c 1
 360 234 l 2
 360 334 357 376 357 376 c 1
366 432 m 0
 384.3 429 424.3 429.7 447 432 c 1
 449 429 l 1
 442 385.7 440 310 440 235 c 2
 440 -32 l 2
 440 -107.2 440.5 -175 449 -232 c 1
 447 -235 l 1
 447 -235 434.3 -232 400 -232 c 0
 365 -232 353 -235 353 -235 c 1
 351 -232 l 1
 359.5 -178.5 360 -106 360 -32 c 2
 360 23 l 1
 345 10 299 -10 242 -10 c 0
 104 -10 49 111.7 49 216 c 0
 49 348 141 439 257 439 c 0
 291 439 347.9 435 366 432 c 0
EndSplineSet
Substitution2: "'sinf' Wissenschaftliche Indices 1" u1D5CA.inferior
Substitution2: "'sups' Hochgestellte 1" u1D5CA.superior
EndChar

StartChar: u1D5CB
Encoding: 120267 120267 43
Width: 355
VWidth: 999
Flags: MW
TopAccentHorizontal: 185
HStem: -3 21G<77 85 169 177> 366 73<234.115 317.232>
VStem: 87 80<2.6647 408.988>
AnchorPoint: "unten_punkt" 128 -108 basechar 0
LayerCount: 2
Fore
SplineSet
167 334 m 1
 170 332 l 1
 214 408 243 439 297 439 c 0
 315 439 316 437 333 432 c 1
 337 428 l 1
 317 354 l 1
 309 352 l 1
 296 364 277 366 257 366 c 0
 238 366 215.5 353.3 201 331 c 0
 179.5 298 167 274 167 232 c 2
 167 180 l 2
 167 104 168.5 57 176 0 c 1
 174 -3 l 1
 162 -1 139 0 127 0 c 0
 115 0 92 -1 80 -3 c 1
 78 0 l 1
 85.8 53.8 87 105 87 180 c 2
 87 235 l 2
 87 310 85 385.7 78 429 c 1
 80 432 l 1
 102.7 429.7 138.5 430.5 161 435 c 0
 165.7 435 167 432.7 167 425 c 2
 167 334 l 1
EndSplineSet
Substitution2: "'sinf' Wissenschaftliche Indices 1" u1D5CB.inferior
Substitution2: "'sups' Hochgestellte 1" u1D5CB.superior
EndChar

StartChar: u1D5CC
Encoding: 120268 120268 44
Width: 396
VWidth: 999
Flags: MW
TopAccentHorizontal: 208
HStem: -10 40<120.364 245.933> 399 40<143.409 259.414>
VStem: 54 71<289.895 382.475> 275 79<56.2279 159.299>
AnchorPoint: "unten_punkt" 198.2 -111 basechar 0
LayerCount: 2
Fore
SplineSet
50 101 m 1
 65 102 l 1
 93 63 135 30 183 30 c 0
 236 30 275 60 275 113 c 0
 275 162 232 178 174 194 c 0
 113.7 210.6 54 237 54 317 c 0
 54 400 131 439 205 439 c 0
 256 439 311 424 340 409 c 1
 342 406 l 1
 322 332 l 1
 308 331 l 1
 285 358 253 399 201 399 c 0
 158 399 125 377 125 336 c 0
 125 286 180.2 267.1 218 258 c 0
 289 241 354 209 354 127 c 0
 354 72 322 -10 184 -10 c 0
 146 -10 90 -3 33 17 c 1
 50 101 l 1
EndSplineSet
Substitution2: "'sinf' Wissenschaftliche Indices 1" u1D5CC.inferior
Substitution2: "'sups' Hochgestellte 1" u1D5CC.superior
EndChar

StartChar: u1D5CD
Encoding: 120269 120269 45
Width: 340
VWidth: 999
Flags: MW
TopAccentHorizontal: 146
HStem: -10 21G<157 201> 27 24.7<276.969 287.167> 385 44<29.4741 95 175 290.596>
VStem: 95 80<127.416 384.996 429.011 557>
AnchorPoint: "unten_punkt" 163 -107 basechar 0
LayerCount: 2
Fore
SplineSet
95 429 m 1
 95 487 97 522.3 99 557 c 1
 101 560 l 1
 133.5 564.5 145.9 575 171 585 c 1
 177.3 585 180 582.3 180 575 c 0
 175.5 517 175 503.8 175 429 c 1
 222 429 l 2
 245 429 274 430.3 292 431 c 1
 297 424 l 1
 291 409.3 288 399 285 383 c 1
 271.7 384.3 237 385 213 385 c 2
 175 385 l 1
 175 259 l 2
 175 199 172 156 172 126 c 0
 172 71.9 181.3 47.8 205 44 c 0
 230 40 253 41 283.7 51.7 c 1
 296 27 l 1
 254 0 222 -10 180 -10 c 0
 134 -10 92 21 92 86 c 0
 92 116 95 188 95 248 c 2
 95 385 l 1
 72.2 384.9 41.2 384.3 24 383 c 1
 19 390 l 1
 28.7 405 34.3 414.7 41 431 c 1
 53.4 429.4 74.5 429.1 95 429 c 1
EndSplineSet
Substitution2: "'sups' Hochgestellte 1" u1D5CD.superior
Substitution2: "'sinf' Wissenschaftliche Indices 1" u1D5CD.inferior
EndChar

StartChar: u1D5CE
Encoding: 120270 120270 46
Width: 537
VWidth: 999
Flags: MW
TopAccentHorizontal: 262
HStem: -10 56<180.062 284.965> -3 21G<376.625 384.667 455.5 464> 412 20G<74 82 164 172 358 366 448 456>
VStem: 83 80<63.2634 426.335> 367 80<119.835 426.324>
AnchorPoint: "unten_punkt" 240 -111 basechar 0
LayerCount: 2
Fore
SplineSet
365 92 m 1
 332 41 276 -10 214 -10 c 0
 115 -10 83 60 83 129 c 2
 83 249 l 2
 83 325 82 372 74 429 c 1
 76 432 l 1
 88 430 111 429 123 429 c 0
 135 429 158 430 170 432 c 1
 172 429 l 1
 164 376 163 324 163 249 c 2
 163 150 l 2
 163 57 195.5 46 230 46 c 0
 279 46 336.5 99.5 367 151 c 1
 367 249 l 2
 367 325 365.8 371.8 358 429 c 1
 360 432 l 1
 372 430 395 429 407 429 c 0
 419 429 442 430 454 432 c 1
 456 429 l 1
 448 376 447 324 447 249 c 2
 447 192 l 2
 447 117 456 43 464 0 c 1
 462 -3 l 1
 449 -1 430.1 0 417.5 0 c 0
 403 0 391.3 -1.3 378 -3 c 0
 375.2 -3 374 -2 374 0 c 2
 369 89 l 1
 365 92 l 1
EndSplineSet
Substitution2: "'sinf' Wissenschaftliche Indices 1" u1D5CE.inferior
Substitution2: "'sups' Hochgestellte 1" u1D5CE.superior
EndChar

StartChar: u1D5CF
Encoding: 120271 120271 47
Width: 462
Flags: MW
TopAccentHorizontal: 263
HStem: -3 21G<169 202 253.5 284> 412 20G<28 53.5 116.5 141.161 344.741 369.5 404.5 432.5>
AnchorPoint: "unten_punkt" 240 -113 basechar 0
LayerCount: 2
Fore
SplineSet
202 -3 m 1
 146 143 87 285 20 432 c 1
 36 429 62 429 78 429 c 0
 92 429 115 429 128 432 c 1
 164.3 317.3 196.7 204.6 246.8 90.1 c 1
 248.8 90.1 l 1
 294.7 188.1 329.5 318.9 370 432 c 1
 379 429 394 429 404 429 c 0
 414 429 433 429 442 432 c 1
 377 285 315 143 263 -3 c 1
 254 0 243 0 233 0 c 0
 223 0 212 0 202 -3 c 1
EndSplineSet
Substitution2: "'sinf' Wissenschaftliche Indices 1" u1D5CF.inferior
Substitution2: "'sups' Hochgestellte 1" u1D5CF.superior
EndChar

StartChar: u1D5D0
Encoding: 120272 120272 48
Width: 722
Flags: MW
TopAccentHorizontal: 346
HStem: 0 90.1<243.546 268.918 501.03 524.62> 412 20G<33 58.5 121.5 146.161 313 326.5 401.5 419.5 626.5 649.5 693.5 717.5>
AnchorPoint: "unten_punkt" 352 -111 basechar 0
LayerCount: 2
Fore
SplineSet
205 -4 m 1
 149 142 87 284 20 431 c 1
 36 428 62 428 78 428 c 0
 92 428 115 428 128 431 c 1
 164.3 316.3 197.7 203.6 247.8 89.1 c 1
 253.8 89.1 l 1
 282.8 151 310 226 336.8 301.3 c 1
 319.6 347 303.7 391 290 432 c 1
 306 429 332 429 348 429 c 0
 362 429 385 429 398 432 c 1
 421 326 452 200 493.8 90.1 c 1
 501.8 90.1 l 1
 543 186 588 314 625 432 c 1
 634 429 649 429 659 429 c 0
 669 429 693 429 702 432 c 1
 645 307 565 115 516 -3 c 1
 507 0 489 0 479 0 c 0
 469 0 463 0 453 -3 c 1
 424.5 74.6 392.6 155.6 362.6 233.7 c 1
 330.4 155.2 301.4 72.9 274 -4 c 1
 265 -1 248 -1 238 -1 c 0
 228 -1 215 -1 205 -4 c 1
EndSplineSet
Substitution2: "'sinf' Wissenschaftliche Indices 1" u1D5D0.inferior
Substitution2: "'sups' Hochgestellte 1" u1D5D0.superior
EndChar

StartChar: u1D5D1
Encoding: 120273 120273 49
Width: 455
Flags: W
TopAccentHorizontal: 257
HStem: -3 21G<32.9166 42.9154 102.833 127.09 303.818 329.25 399.73 422.25> 412 20G<32 38.2517 127.333 152.82 329.776 354.25 414.724 424.667>
DStem2: 28 -3 266.897 230.345 0.610028 0.79238<342.805 537.339> 237.121 268.632 184.468 206.808 0.578962 -0.815354<-188.709 0 72.1587 267.447>
AnchorPoint: "unten_punkt" 224 -110 basechar 0
LayerCount: 2
Fore
SplineSet
184.5 206.8 m 1
 24 432 l 1
 40 429.8 66 429 82 429 c 0
 99 429 118.7 429.8 136 432 c 1
 169.6 376.3 197 323.2 237.1 268.6 c 1
 279.3 323.2 310.6 376.3 349 432 c 1
 359.5 429.8 375 429 386 429 c 0
 396 429 418.3 429.8 431 432 c 1
 266.9 230.3 l 1
 320.8 152.2 369.5 75.1 430 -3 c 1
 414.5 -1.3 388 0 373 0 c 0
 357 0 336.5 -0.8 322 -3 c 1
 285.6 54.3 256 109 216 165.1 c 1
 176 109 146.2 54.3 108 -3 c 1
 97.7 -1.2 74 0 64 0 c 0
 54 0 37.8 -1.2 28 -3 c 1
 184.5 206.8 l 1
EndSplineSet
Substitution2: "'sups' Hochgestellte 1" u1D5D1.superior
Substitution2: "'sinf' Wissenschaftliche Indices 1" u1D5D1.inferior
EndChar

StartChar: u1D5D2
Encoding: 120274 120274 50
Width: 506
Flags: MW
TopAccentHorizontal: 294
HStem: -237 21G<109 126.595 183 207> 412 20G<35 47.8975 122.5 147.705 377.981 401 461.5 473>
LayerCount: 2
Fore
SplineSet
28 432 m 1
 42 429 67 429 80 429 c 0
 94 429 116 429 129 432 c 1
 166.4 317.8 213.5 206.5 262.7 87.6 c 1
 264.7 87.6 l 1
 313.3 191.2 360 319 396 432 c 1
 406 429 425 429 435 429 c 0
 445 429 468 429 478 432 c 1
 445 365 226 -112 188 -237 c 1
 178 -234 149 -232 139 -232 c 0
 129 -232 114 -234 104 -237 c 1
 149.2 -161.7 190 -84.7 222 -10 c 1
 186.6 85.1 67.8 343.2 28 432 c 1
EndSplineSet
Substitution2: "'sinf' Wissenschaftliche Indices 1" u1D5D2.inferior
Substitution2: "'sups' Hochgestellte 1" u1D5D2.superior
EndChar

StartChar: u1D5D3
Encoding: 120275 120275 51
Width: 416
VWidth: 999
Flags: W
TopAccentHorizontal: 221
HStem: 0 45<135.9 345.956> 383.7 45.3<66.2425 276.986>
DStem2: 42 32 135.9 45.0322 0.555498 0.831518<62.9977 423.019>
AnchorPoint: "unten_punkt" 207 -111 basechar 0
LayerCount: 2
Fore
SplineSet
135.9 45 m 1
 257.5 45.7 386 56 386 56 c 1
 388 53 l 1
 387 45 386 36 386 27 c 0
 386 18 387 13 388 0 c 1
 386 -3 l 1
 371 -1 350 0 330 0 c 2
 104 0 l 2
 75.5 0 23 -3 23 -3 c 1
 20 1.5 l 1
 28 10.7 34 20 42 32 c 2
 277 383.7 l 1
 162.4 382.1 49 373 49 373 c 1
 47 376 l 1
 48 384 49 393 49 402 c 0
 49 411 48 416 47 429 c 1
 49 432 l 1
 64 430 85 429 105 429 c 2
 309 429 l 2
 338 429 384.7 435.3 389.7 435.3 c 0
 393.7 435.3 395 433 395 429 c 1
 389 422 382 412.4 365 387 c 2
 135.9 45 l 1
EndSplineSet
Substitution2: "'sinf' Wissenschaftliche Indices 1" u1D5D3.inferior
Substitution2: "'sups' Hochgestellte 1" u1D5D3.superior
EndChar

StartChar: u1D7E2
Encoding: 120802 120802 52
Width: 465
VWidth: 514
Flags: W
HStem: -10 39<183.08 275.631> 571 39<186.103 279.637>
VStem: 39 86<141.14 436.169> 335 86<153.2 457.365>
LayerCount: 2
Fore
SplineSet
233 571 m 0
 187 571 125 534 125 287 c 0
 125 200 136 29 229 29 c 0
 247 29 296 39 318 122 c 0
 332 173 335 225 335 317 c 0
 335 451 308 529 277 555 c 0
 266 565 250 571 233 571 c 0
228 -10 m 0
 104 -10 39 127 39 289 c 0
 39 486 133 610 233 610 c 0
 269 610 301 600 328 575 c 0
 364 542 421 465 421 309 c 0
 421 75 305 -10 228 -10 c 0
EndSplineSet
Substitution2: "'sups' Hochgestellte 1" u1D7E2.superior
Substitution2: "'sinf' Wissenschaftliche Indices 1" u1D7E2.inferior
EndChar

StartChar: u1D7E3
Encoding: 120803 120803 53
Width: 465
VWidth: 1054
Flags: W
HStem: -3 21G<238 285 285 335> 497 29<112.552 147.996> 590 20G<294.5 329>
VStem: 246 80<2.80533 511.906>
LayerCount: 2
Fore
SplineSet
326 189 m 2
 326 110 328 60 335 0 c 1
 333 -3 l 1
 333 -3 305 0 285 0 c 0
 267 0 239 -3 239 -3 c 1
 238 0 l 1
 245 57 246 111 246 189 c 2
 246 437 l 2
 246 473 246 513 228 513 c 0
 208 513 159 502 114 497 c 1
 108 526 l 1
 186 550 262 589 327 610 c 1
 331 610 334 610 334 605 c 0
 332 591 326 551 326 443 c 2
 326 189 l 2
EndSplineSet
Substitution2: "'sups' Hochgestellte 1" u1D7E3.superior
Substitution2: "'sinf' Wissenschaftliche Indices 1" u1D7E3.inferior
EndChar

StartChar: u1D7E4
Encoding: 120804 120804 54
Width: 465
VWidth: 514
Flags: W
HStem: 0 65<161.682 422.254> 459 21G<87.7568 107.789> 553 57<146.813 281.557>
VStem: 327.8 85.9<362.971 505.907>
LayerCount: 2
Fore
SplineSet
222 553 m 0
 194 553 165 546 145 530 c 0
 119.6 509.7 114.7 489 100.9 459 c 1
 87.8 460 l 1
 66.1 529 l 1
 88.9 559 147.3 610 238.3 610 c 0
 349.9 610 413.7 543.6 413.7 448.5 c 0
 413.7 391.9 378 327.7 341.1 278 c 0
 275 189 228 144 179.4 97 c 0
 172 89.9 161.7 79.3 161.7 70 c 0
 161.7 68 162.1 66.6 162.9 65 c 1
 190.3 67 209.5 67 244.6 67 c 0
 340.6 67 371.2 70 427.5 75 c 1
 423.8 59.8 422.6 44.2 422.6 28 c 0
 422.6 17.1 424.2 5.4 425.7 -5 c 1
 354.3 -2 324 0 252 0 c 0
 179 0 136.5 -3 62.7 -5 c 1
 57.5 3.6 52.6 19.3 52.6 34.4 c 0
 52.6 39 53.2 43.3 54.4 47 c 1
 103.5 93.7 218 194 289.7 301 c 0
 315.8 340 327.8 393.2 327.8 434.9 c 0
 327.8 505 274.4 553 222 553 c 0
EndSplineSet
Substitution2: "'sups' Hochgestellte 1" u1D7E4.superior
Substitution2: "'sinf' Wissenschaftliche Indices 1" u1D7E4.inferior
EndChar

StartChar: u1D7E5
Encoding: 120805 120805 55
Width: 465
VWidth: 514
Flags: W
HStem: -10 39<136.242 277.156> 300 39<161.654 269.23> 571 39<167.892 281.532>
VStem: 319 87<401.481 534.347> 340 86<97.1333 247.867>
LayerCount: 2
Fore
SplineSet
209 29 m 0
 245 29 340 51 340 172 c 0
 340 211 327 246 301 268 c 0
 273 291 235 300 203 300 c 0
 194 300 173 300 161 298 c 1
 161 342 l 1
 175 340 186 339 198 339 c 0
 232 339 261 348 281 367 c 0
 304 389 319 421 319 465 c 0
 319 530 275 571 236 571 c 0
 176 571 144 542 120 486 c 1
 105 487 l 1
 84 551 l 1
 87 554 l 1
 112 576 168 610 245 610 c 0
 344 610 406 552 406 480 c 0
 406 397 340 339 288 327 c 1
 288 322 l 1
 365 315 426 259 426 180 c 0
 426 48 292 -10 207 -10 c 0
 127 -10 84 16 58 38 c 1
 55 41 l 1
 77 116 l 1
 92 117 l 1
 119 59 130 29 209 29 c 0
EndSplineSet
Substitution2: "'sups' Hochgestellte 1" u1D7E5.superior
Substitution2: "'sinf' Wissenschaftliche Indices 1" u1D7E5.inferior
EndChar

StartChar: u1D7E6
Encoding: 120806 120806 56
Width: 465
VWidth: 514
Flags: W
HStem: -3 21G<278 326 363.5 368.5> 148 50<83 286 364 439.25> 584 20G<291 329 363.5 368.5>
VStem: 286 78<2.36826 148 198 512 562.646 601>
DStem2: 34 207 83 198 0.542919 0.839785<19.0449 392.95>
LayerCount: 2
Fore
SplineSet
286 148 m 1
 80 148 l 2
 44 148 21 153 21 168 c 0
 21 178 24 189 34 207 c 0
 86 296 230 516 291 600 c 0
 291 601 295 604 295 604 c 1
 295 604 313 600 329 600 c 0
 344 600 359 604 368 604 c 0
 369 604 370 602 370 600 c 0
 365 554 364 485 364 452 c 2
 364 198 l 1
 428 198 l 2
 438 198 443 191 443 182 c 0
 443 171 428 148 414 148 c 2
 414 148 400 148 364 148 c 1
 364 90 366 58 370 0 c 0
 370 -1 369 -3 368 -3 c 0
 359 -3 342 0 326 0 c 0
 310 0 279 -3 279 -3 c 1
 278 0 l 1
 284 51 286 71 286 148 c 1
286 512 m 1
 83 198 l 1
 286 198 l 1
 286 512 l 1
EndSplineSet
Substitution2: "'sups' Hochgestellte 1" u1D7E6.superior
Substitution2: "'sinf' Wissenschaftliche Indices 1" u1D7E6.inferior
EndChar

StartChar: u1D7E7
Encoding: 120807 120807 57
Width: 465
VWidth: 514
Flags: W
HStem: -10 40<137.181 265.183> 340 40<121.341 263.666> 533 67<140.396 373.874> 539 71<140.517 216.261 220.485 265.8 269.409 373>
VStem: 318 88<100.438 281.299>
DStem2: 72 311.5 120 365 0.108023 0.994148<58.372 236.605>
LayerCount: 2
Fore
SplineSet
202 -10 m 0
 126 -10 76 24 51 46 c 1
 47 49 l 1
 69 129 l 1
 83 130 l 1
 116 70 129 30 204 30 c 0
 272 30 318 87 318 179 c 0
 318 288 268 340 203 340 c 0
 156.4 340 118.9 325 79 309 c 1
 72 311.5 l 1
 104 606 l 1
 138 603 181 600 218 600 c 0
 271 600 325 603 382 610 c 1
 389 607 l 1
 373 539 l 1
 332 534 298 533 268 533 c 0
 221 533 178 537 141 542 c 1
 120 365 l 1
 142 373 188 380 229 380 c 0
 341 380 406 293 406 196 c 0
 406 78 321 -10 202 -10 c 0
EndSplineSet
Substitution2: "'sups' Hochgestellte 1" u1D7E7.superior
Substitution2: "'sinf' Wissenschaftliche Indices 1" u1D7E7.inferior
EndChar

StartChar: u1D7E8
Encoding: 120808 120808 58
Width: 465
VWidth: 514
Flags: W
HStem: -9 36<196.673 304.655> 318 40<172.443 291.974> 583 28<329.2 397.75>
VStem: 46 80<113.377 324.146> 344 88<87.9184 265.783>
LayerCount: 2
Fore
SplineSet
127 277 m 1
 126 267 126 250 126 240 c 0
 126 62 202 27 255 27 c 0
 303 27 344 63 344 173 c 0
 344 222 329 318 228 318 c 0
 206 318 166 317 127 277 c 1
400 583 m 1
 331 576 275 558 224 509 c 0
 176 462 140 391 129 306 c 1
 153 336 209 358 249 358 c 0
 405 358 432 228 432 180 c 0
 432 108 390 -9 244 -9 c 0
 167 -9 46 33 46 243 c 0
 46 340 80 435 153 508 c 0
 221 577 294 605 397 611 c 1
 400 583 l 1
EndSplineSet
Substitution2: "'sups' Hochgestellte 1" u1D7E8.superior
Substitution2: "'sinf' Wissenschaftliche Indices 1" u1D7E8.inferior
EndChar

StartChar: u1D7E9
Encoding: 120809 120809 59
Width: 465
VWidth: 514
Flags: W
HStem: -13 21G<124 200> 525 75<106.135 344.444> 587 20G<64 84.5 399.5 424>
LayerCount: 2
Fore
SplineSet
345 525 m 1
 279.5 527 136 526.5 63 516 c 1
 65 531 68 550 68 565 c 0
 68 580 65 592 63 607 c 1
 106 601 194 600 343 600 c 0
 374 600 392 605 407 610 c 1
 424 600 l 1
 312 327 257 161 200 -9 c 1
 127 -13 l 1
 124 -7 l 1
 191 143 267 332 345 525 c 1
EndSplineSet
Substitution2: "'sups' Hochgestellte 1" u1D7E9.superior
Substitution2: "'sinf' Wissenschaftliche Indices 1" u1D7E9.inferior
EndChar

StartChar: u1D7EA
Encoding: 120810 120810 60
Width: 465
VWidth: 514
Flags: W
HStem: -9 33<172.123 293.989> 577 33<178.107 290.026>
VStem: 39 78<70.9443 212.895> 67 75<424.78 541.178> 324 74<424.283 550.912> 345 83<88.2317 209.556>
DStem2: 280 340 257 271 0.843931 -0.536452<-167.783 -79.493 -45.3536 -44.1003 0 116.605>
LayerCount: 2
Fore
SplineSet
235 577 m 0
 175 577 142 538 142 491 c 0
 142 460 149 423 212 382 c 1
 243 364 l 1
 271 384 324 432 324 486 c 0
 324 533 300 577 235 577 c 0
398 485 m 0
 398 421 325 370 280 340 c 1
 341 300 l 2
 396 264 428 220 428 162 c 0
 428 86 357 -9 226 -9 c 0
 120 -9 39 44 39 146 c 0
 39 185 64 230 105 266 c 0
 130 288 150 304 175 323 c 1
 155 334 l 1
 98 367 67 417 67 473 c 0
 67 550 139 610 241 610 c 0
 340 610 398 557 398 485 c 0
228 24 m 0
 274 24 345 44 345 141 c 0
 345 188 319 232 257 271 c 2
 211 300 l 1
 125 243 117 176 117 146 c 0
 117 56 182 24 228 24 c 0
EndSplineSet
Substitution2: "'sups' Hochgestellte 1" u1D7EA.superior
Substitution2: "'sinf' Wissenschaftliche Indices 1" u1D7EA.inferior
EndChar

StartChar: u1D7EB
Encoding: 120811 120811 61
Width: 465
VWidth: 514
Flags: W
HStem: -11 28<62.25 130.8> 242 40<168.026 287.557> 573 36<155.345 263.327>
VStem: 28 88<334.217 512.082> 334 80<275.854 486.623>
LayerCount: 2
Fore
SplineSet
333 323 m 1
 334 333 334 350 334 360 c 0
 334 538 258 573 205 573 c 0
 157 573 116 537 116 427 c 0
 116 378 131 282 232 282 c 0
 254 282 294 283 333 323 c 1
60 17 m 1
 129 24 185 42 236 91 c 0
 284 138 320 209 331 294 c 1
 307 264 251 242 211 242 c 0
 55 242 28 372 28 420 c 0
 28 492 70 609 216 609 c 0
 293 609 414 567 414 357 c 0
 414 260 380 165 307 92 c 0
 239 23 166 -5 63 -11 c 1
 60 17 l 1
EndSplineSet
Substitution2: "'sups' Hochgestellte 1" u1D7EB.superior
Substitution2: "'sinf' Wissenschaftliche Indices 1" u1D7EB.inferior
Colour: ff00ff
EndChar

StartChar: u1D5BA.inferior
Encoding: 1114112 -1 62
Width: 311
Flags: W
HStem: -106 37<112.47 167.758 269.222 300.453> 139 33<106.794 182.321>
VStem: 34 74<-62.7171 6.1207> 193 68<-47.7163 38 68.0325 133.125>
DStem2: 190 68 193 38 0.972224 0.234054<-88.4558 -4.10494>
LayerCount: 2
Fore
SplineSet
144 25 m 2
 128 20.3 117.7 12.7 113 2 c 0
 109.7 -5.3 108 -17.3 108 -34 c 0
 108 -42.7 110.3 -50.7 115 -58 c 1
 121 -65.3 128.3 -69 137 -69 c 0
 153.7 -69 169 -62 183 -48 c 0
 189 -42 192 -32.7 192 -20 c 2
 193 38 l 1
 144 25 l 2
259 -50 m 2
 259 -60 262.3 -66.3 269 -69 c 0
 273.7 -71.7 283 -73 297 -73 c 1
 300.3 -75.7 302.3 -80 303 -86 c 1
 285 -99.3 264.7 -106 242 -106 c 0
 215.3 -106 199 -94 193 -70 c 1
 191 -70 l 1
 164.3 -94 138.3 -106 113 -106 c 0
 90.3 -106 71.7 -100.3 57 -89 c 0
 41.7 -76.3 34 -59.7 34 -39 c 0
 34 -18.3 43.7 0.700001 63 18 c 0
 81.7 35.3 106 47.7 136 55 c 2
 190 68 l 2
 192 68.7 193 71 193 75 c 0
 193 117.7 178.7 139 150 139 c 0
 122 139 98.7 122.7 80 90 c 1
 66 90 l 1
 54 137 l 1
 56 139 l 1
 80.7 161 114 172 156 172 c 0
 191.3 172 218.3 163.7 237 147 c 0
 253 132.3 261 107.3 261 72 c 2
 259 -50 l 2
EndSplineSet
EndChar

StartChar: u1D5BB.inferior
Encoding: 1114113 -1 63
Width: 344
Flags: W
HStem: -105 27<142.44 209.408> 103 34<153.323 223.918>
VStem: 70 64<-73.8801 94.7969 107 258> 240 65<-46.2927 93.0137>
LayerCount: 2
Fore
SplineSet
134 -51 m 1
 140.7 -69 156 -78 180 -78 c 0
 194.7 -78 208 -69.3 220 -52 c 0
 233.3 -32.7 240 -8.7 240 20 c 0
 240 75.3 223 103 189 103 c 0
 171.7 103 153.3 96 134 82 c 1
 134 -51 l 1
134 107 m 1
 160 127 183.7 137 205 137 c 0
 233 137 256.7 128 276 110 c 0
 295.3 92 305 65.7 305 31 c 0
 305 -11.7 290.7 -45.7 262 -71 c 0
 237.3 -93.7 208.3 -105 175 -105 c 0
 148.3 -105 128 -95.7 114 -77 c 1
 100 -90.3 91 -100 87 -106 c 1
 79 -106 72.7 -104.3 68 -101 c 1
 69.3 -91.7 70 -78.3 70 -61 c 2
 70 156 l 2
 70 203.3 68.3 237 65 257 c 1
 66 258 l 1
 85.3 259.3 108 265.3 134 276 c 1
 137.3 276 139 274.3 139 271 c 0
 135.7 242.3 134 208.3 134 169 c 2
 134 107 l 1
EndSplineSet
Colour: ff00ff
EndChar

StartChar: u1D5BC.inferior
Encoding: 1114114 -1 64
Width: 304
Flags: W
HStem: -106 35<148.872 245.235> 89 63<235.622 259> 140 32<143.861 222.553>
VStem: 42 74<-39.7742 113.826>
LayerCount: 2
Fore
SplineSet
135 115 m 0
 122.3 97 116 72.3 116 41 c 0
 116 10.3 122.7 -15.7 136 -37 c 0
 149.3 -59.7 166 -71 186 -71 c 0
 218.7 -71 242 -62.3 256 -45 c 1
 266 -45 l 1
 266 -54.3 267 -63.7 269 -73 c 1
 242.3 -95 209.3 -106 170 -106 c 0
 131.3 -106 99.7 -93 75 -67 c 1
 53 -42.3 42 -11.7 42 25 c 0
 42 72.3 54.7 109 80 135 c 0
 104 159.7 137.3 172 180 172 c 0
 215.3 172 246 165.3 272 152 c 1
 274 150 l 1
 259 90 l 1
 248 89 l 1
 231.3 123 210.7 140 186 140 c 0
 164.7 140 147.7 131.7 135 115 c 0
EndSplineSet
Colour: ff00ff
EndChar

StartChar: u1D5BD.inferior
Encoding: 1114115 -1 65
Width: 348
Flags: W
HStem: -106 36<124.774 191.577> 107 29<130.39 204.492>
VStem: 44 64<-58.0527 82.3725> 219 64<-58.3662 98.4922 124 257>
LayerCount: 2
Fore
SplineSet
219 75 m 1
 205.7 96.3 188.7 107 168 107 c 0
 128 107 108 77.3 108 18 c 0
 108 -40.7 126 -70 162 -70 c 0
 182.7 -70 201.7 -59 219 -37 c 1
 219 75 l 1
219 -66 m 1
 191.7 -92.7 166 -106 142 -106 c 0
 112 -106 88 -95 70 -73 c 0
 52.7 -52.3 44 -25 44 9 c 0
 44 51 59.3 84 90 108 c 0
 114 126.7 144 136 180 136 c 0
 192 136 205 132 219 124 c 1
 219 155 l 2
 219 202.3 217.3 236 214 256 c 1
 215 257 l 1
 234.3 258.3 257 264.3 283 275 c 1
 286.3 275 288 273.3 288 270 c 0
 284.7 241.3 283 207.3 283 168 c 2
 283 3 l 2
 283 -33 286 -67.3 292 -100 c 1
 291 -102 l 1
 283.7 -100.7 272.3 -100 257 -100 c 0
 246.3 -100 236.7 -100.7 228 -102 c 0
 224.7 -102 223 -101.3 223 -100 c 2
 220 -66 l 1
 219 -66 l 1
EndSplineSet
Colour: ff00ff
EndChar

StartChar: u1D5BE.inferior
Encoding: 1114116 -1 66
Width: 311
Flags: W
HStem: -106 42<127.084 240.84> 44 28<107 198.998> 142 30<128.369 189.343>
VStem: 34 72<-43.1719 44> 199 75<51.3334 130.176>
LayerCount: 2
Fore
SplineSet
190 72 m 2
 196 72 199 76.7 199 86 c 0
 199 123.3 186 142 160 142 c 0
 148 142 137.3 137 128 127 c 0
 116.7 114.3 109.7 96 107 72 c 1
 190 72 l 2
273 -55 m 1
 247.7 -89 210.3 -106 161 -106 c 0
 117.7 -106 85 -93 63 -67 c 0
 43.7 -43.7 34 -13.7 34 23 c 0
 34 67.7 47.7 104.3 75 133 c 0
 99.7 159 128 172 160 172 c 0
 198.7 172 228 160 248 136 c 0
 265.3 114.7 274 87.7 274 55 c 0
 274 47.7 270.3 44 263 44 c 2
 106 44 l 1
 106 -28 128.3 -64 173 -64 c 0
 212.3 -64 241.3 -54 260 -34 c 1
 268.7 -38.7 273 -45.7 273 -55 c 1
EndSplineSet
EndChar

StartChar: u1D5BF.inferior
Encoding: 1114117 -1 67
Width: 218
Flags: W
HStem: 106 24<25 60 124 185.997> 238 37<128.607 203.229>
VStem: 60 64<-98.8973 106 130 218.95>
LayerCount: 2
Fore
SplineSet
193 275 m 0
 204.3 275 212.3 273.3 217 270 c 2
 218 269 l 1
 215.3 265 213 256.3 211 243 c 2
 205 214 l 1
 195 214 l 1
 185.7 230 176 238 166 238 c 0
 136 238 121 221 121 187 c 0
 121 183.7 121.3 175.3 122 162 c 0
 123.3 149.3 124 140.7 124 136 c 2
 124 130 l 1
 182 130 l 2
 184.7 130 186 129 186 127 c 2
 186 113 l 2
 186 108.3 182 106 174 106 c 2
 124 106 l 1
 124 7 l 2
 124 -41 125.3 -76.7 128 -100 c 1
 127 -102 l 1
 115.7 -100.7 104 -100 92 -100 c 0
 79.3 -100 67.7 -100.7 57 -102 c 1
 56 -100 l 1
 58.7 -82 60 -46.3 60 7 c 2
 60 106 l 1
 25 106 l 2
 23 106 22 107 22 109 c 2
 22 120 l 2
 22 126.7 26 130 34 130 c 2
 60 130 l 1
 60 146 l 2
 60 181.3 72.3 212 97 238 c 0
 121 262.7 153 275 193 275 c 0
EndSplineSet
Colour: ff00ff
EndChar

StartChar: u1D5C0.inferior
Encoding: 1114118 -1 68
Width: 344
Flags: W
HStem: -246 26<117.535 212.807> -110 52<127 237.989> -12 25<131.446 191.054> 148 24<128.481 188.062>
VStem: 32 61<-205.304 -125.195> 43 72<22.9245 137.494> 46 60<-61.1736 -13.9258> 207 72<24.2997 131.385> 247 71<-191.416 -120.717>
LayerCount: 2
Fore
SplineSet
248 12 m 0
 226.7 -4 198 -12 162 -12 c 0
 144 -12 128 -9 114 -3 c 1
 108.7 -12.3 106 -22.3 106 -33 c 0
 106 -53 117.7 -63 141 -63 c 1
 153 -61 l 2
 169 -59 182 -58 192 -58 c 0
 276 -58 318 -85.7 318 -141 c 0
 318 -172.3 298 -198.3 258 -219 c 0
 222.7 -237 183 -246 139 -246 c 0
 111.7 -246 88.3 -241 69 -231 c 0
 44.3 -218.3 32 -200 32 -176 c 0
 32 -155.3 36.7 -139 46 -127 c 1
 51.3 -124.3 58.3 -120 67 -114 c 2
 86 -101 l 1
 59.3 -93.7 46 -77.7 46 -53 c 0
 46 -33.7 61 -15 91 3 c 1
 74 14 l 1
 53.3 31.3 43 52.7 43 78 c 0
 43 107.3 53.7 130.3 75 147 c 0
 95.7 163.7 123 172 157 172 c 0
 174.3 172 188.7 170.3 200 167 c 1
 210 167.7 230.3 168.3 261 169 c 0
 282.3 170.3 298.7 171.3 310 172 c 1
 312 170 l 1
 310.7 164.7 310 158.7 310 152 c 0
 310 146.7 310.7 141.3 312 136 c 1
 310 134 l 1
 248 139 l 1
 268.7 125 279 105 279 79 c 0
 279 51 268.7 28.7 248 12 c 0
156 148 m 0
 128.7 148 115 127.7 115 87 c 0
 115 37.7 130.7 13 162 13 c 0
 174.7 13 185 17.7 193 27 c 0
 202.3 37.7 207 53 207 73 c 0
 207 123 190 148 156 148 c 0
93 -163 m 0
 93 -181.7 101 -196.3 117 -207 c 0
 129 -215.7 142 -220 156 -220 c 0
 182.7 -220 204.3 -214 221 -202 c 0
 238.3 -190 247 -174.3 247 -155 c 0
 247 -125 221.3 -110 170 -110 c 2
 127 -110 l 1
 127 -110 124 -109.3 114 -108 c 1
 100 -122.7 93 -141 93 -163 c 0
EndSplineSet
Colour: ff00ff
EndChar

StartChar: u1D5C1.inferior
Encoding: 1114119 -1 69
Width: 335
VWidth: 917
Flags: W
HStem: 82 42<173.982 230.938>
VStem: 81 64<-110.869 62.589 74 245> 235 64<-110.931 80.855>
LayerCount: 2
Fore
SplineSet
81 143 m 2
 81 190.3 79.3 224 76 244 c 1
 77 245 l 1
 96.3 246.3 119 252.3 145 263 c 1
 148.3 263 150 261.3 150 258 c 0
 146.7 229.3 145 195.3 145 156 c 2
 145 123 l 1
 143 74 l 1
 145 73 l 1
 171.7 107 198.7 124 226 124 c 0
 274.7 124 299 97.3 299 44 c 2
 299 -16 l 2
 299 -57.3 300.7 -89.3 304 -112 c 1
 303 -114 l 1
 291 -112.7 279 -112 267 -112 c 0
 254.3 -112 243 -112.7 233 -114 c 1
 232 -112 l 1
 234 -93.3 235 -61.3 235 -16 c 2
 235 32 l 2
 235 65.3 225.7 82 207 82 c 0
 187.7 82 167 67.7 145 39 c 1
 145 -16 l 2
 145 -56 146 -88 148 -112 c 1
 147 -114 l 1
 137 -112.7 125.7 -112 113 -112 c 0
 100.3 -112 88.3 -112.7 77 -114 c 1
 76 -112 l 1
 79.3 -90 81 -58 81 -16 c 2
 81 143 l 2
EndSplineSet
Colour: ff00ff
EndChar

StartChar: u1D5C2.inferior
Encoding: 1114120 -1 70
Width: 244
Flags: W
HStem: -100 272<86.5996 162> 227 80<87.2305 158.77>
VStem: 83 80<-98.6193 157 231.23 302.77>
LayerCount: 2
Fore
SplineSet
95 295 m 0
 102.3 303 111.7 307 123 307 c 0
 134.3 307 143.7 303 151 295 c 0
 159 287.7 163 278.3 163 267 c 0
 163 255.7 159 246.3 151 239 c 0
 143.7 231 134.3 227 123 227 c 0
 111.7 227 102.3 231 95 239 c 0
 87 246.3 83 255.7 83 267 c 0
 83 278.3 87 287.7 95 295 c 0
86 46 m 2
 86 96.7 84 133 80 155 c 1
 81 157 l 1
 114.3 159 140.7 164 160 172 c 1
 164 172 166 170 166 166 c 0
 162 134.7 160 98 160 56 c 2
 160 12 l 2
 160 -33.3 162 -70.7 166 -100 c 1
 165 -102 l 1
 151 -100.7 137 -100 123 -100 c 0
 108.3 -100 94.3 -100.7 81 -102 c 1
 80 -100 l 1
 84 -72 86 -34.7 86 12 c 2
 86 46 l 2
EndSplineSet
Colour: ff00ff
EndChar

StartChar: u1D5C3.inferior
Encoding: 1114121 -1 71
Width: 280
VWidth: 952
Flags: W
LayerCount: 2
Fore
SplineSet
129 283 m 0
 137 291 146.3 295 157 295 c 0
 168.3 295 178 291 186 283 c 0
 193.3 275.7 197 266.3 197 255 c 0
 197 244.3 193.3 235 186 227 c 0
 178 219.7 168.3 216 157 216 c 0
 146.3 216 137 219.7 129 227 c 0
 121.7 235 118 244.3 118 255 c 0
 118 266.3 121.7 275.7 129 283 c 0
122 -116 m 2
 121.3 -98 121 -75.7 121 -49 c 2
 121 36 l 2
 121 86 119 121.7 115 143 c 1
 117 145 l 1
 149 147.7 174.7 152.7 194 160 c 1
 198 160 200 158 200 154 c 0
 195.3 123.3 193 87.3 193 46 c 2
 193 -90 l 2
 193 -142 184.7 -180 168 -204 c 0
 150 -230 113.3 -243 58 -243 c 0
 40 -243 28.3 -241.3 23 -238 c 1
 22 -236 l 1
 24 -232 26 -222 28 -206 c 0
 29.3 -188 30.7 -177 32 -173 c 1
 44 -173 l 1
 54.7 -191.7 67 -201 81 -201 c 0
 95 -201 105.3 -197 112 -189 c 0
 119.3 -179.7 123 -163.3 123 -140 c 2
 122 -116 l 2
EndSplineSet
Colour: ff00ff
EndChar

StartChar: u1D5C4.inferior
Encoding: 1114122 -1 72
Width: 318
VWidth: 442
Flags: W
HStem: 19 16<105 122.717>
VStem: 54 51<-110.354 243.769>
LayerCount: 2
Fore
SplineSet
54 12 m 2
 54 129 l 2
 54 176 53 219 48 245 c 1
 49 247 l 1
 74 249 90 257 106 263 c 1
 110 263 112 261 112 257 c 0
 107 219 105 186 105 140 c 2
 105 35 l 1
 112 35 117 38 125 44 c 0
 150 63 194 115 221 154 c 1
 238 154 274 154 286 156 c 1
 287 154 l 1
 247 120 195 61 171 36 c 1
 230 -35 254 -63 300 -112 c 1
 299 -114 l 1
 293 -113 270 -112 260 -112 c 0
 249 -112 229 -113 219 -114 c 1
 175 -53 163 -28 123 14 c 0
 117 19 109 19 105 19 c 1
 105 12 l 2
 105 -35 107 -77 112 -112 c 1
 110 -114 l 1
 110 -114 101 -112 80 -112 c 0
 58 -112 48 -114 48 -114 c 1
 48 -112 l 1
 53 -79 54 -34 54 12 c 2
EndSplineSet
Colour: ff00ff
EndChar

StartChar: u1D5C5.inferior
Encoding: 1114123 -1 73
Width: 226
VWidth: 917
Flags: W
VStem: 81 64<-110.867 245>
LayerCount: 2
Fore
SplineSet
81 143 m 2
 81 190.3 79.3 224 76 244 c 1
 77 245 l 1
 96.3 246.3 119 252.3 145 263 c 1
 148.3 263 150 261.3 150 258 c 0
 146.7 229.3 145 195.3 145 156 c 2
 145 -5 l 2
 145 -52.3 146.7 -88 150 -112 c 1
 149 -114 l 1
 137.7 -112.7 125.7 -112 113 -112 c 0
 100.3 -112 88.3 -112.7 77 -114 c 1
 76 -112 l 1
 79.3 -90 81 -54.3 81 -5 c 2
 81 143 l 2
EndSplineSet
Colour: ff00ff
EndChar

StartChar: u1D5C6.inferior
Encoding: 1114124 -1 74
Width: 485
VWidth: 442
Flags: W
HStem: 125 35<147.516 207.251 298.393 374.189>
VStem: 51 49<-110.363 93.299 103.023 145> 217 50<-110.363 85.671> 384 49<-110.363 119.112>
CounterMasks: 1 70
LayerCount: 2
Fore
SplineSet
384 0 m 2
 384 69 l 2
 384 111 367 125 334 125 c 0
 310 125 296 119 266 86 c 1
 267 79 267 71 267 62 c 2
 267 0 l 2
 267 -47 268 -77 273 -112 c 1
 272 -114 l 1
 272 -114 263 -112 242 -112 c 0
 220 -112 211 -114 211 -114 c 1
 211 -112 l 1
 216 -79 217 -46 217 0 c 2
 217 68 l 2
 217 110 198 125 174 125 c 0
 152 125 129 101 100 71 c 1
 100 0 l 2
 100 -47 102 -77 107 -112 c 1
 105 -114 l 1
 105 -114 97 -112 76 -112 c 0
 54 -112 45 -114 45 -114 c 1
 45 -112 l 1
 50 -79 51 -46 51 0 c 2
 51 34 l 2
 51 80 50 117 45 143 c 1
 46 145 l 1
 71 147 83 154 99 160 c 1
 103 160 105 158 105 154 c 0
 102 135 99 103 99 103 c 1
 102 101 l 1
 131 132 159 160 197 160 c 0
 232 160 258 139 262 111 c 1
 297 148 323 160 356 160 c 0
 423 160 433 117 433 62 c 2
 433 0 l 2
 433 -47 435 -77 440 -112 c 1
 438 -114 l 1
 438 -114 430 -112 409 -112 c 0
 387 -112 378 -114 378 -114 c 1
 378 -112 l 1
 383 -79 384 -46 384 0 c 2
EndSplineSet
Colour: ff00ff
EndChar

StartChar: u1D5C7.inferior
Encoding: 1114125 -1 75
Width: 319
VWidth: 917
Flags: W
HStem: -112 23<29 41 140 156 186 201 301 312> 123 21<22.0015 60.8307> 127 34<154.412 214.606>
VStem: 66 49<-87.5217 105.435 110 121.995> 227 48<-87.2329 118.012>
LayerCount: 2
Fore
SplineSet
280 4 m 0
 280 -57 282 -66 288 -112 c 1
 286 -115 l 1
 276 -113 258 -112 248 -112 c 0
 238 -112 221 -113 211 -115 c 1
 209 -112 l 1
 215 -69 216 -56 216 4 c 2
 216 32 l 2
 216 97 205.5 113 169 113 c 0
 140 113 126 95 93 47 c 1
 93 4 l 2
 93 -57 94 -66 100 -112 c 1
 98 -115 l 1
 88 -113 71 -112 61 -112 c 0
 51 -112 33 -113 23 -115 c 1
 22 -112 l 1
 28 -69 29 -47 29 4 c 2
 29 26 l 2
 29 86 28 118 22 153 c 1
 23 155 l 1
 41 153 70 154 88 158 c 0
 92 158 93 156 93 150 c 2
 93 91 l 1
 94 89 l 1
 145 149 163 161 193 161 c 0
 262.5 161 280 117 280 34 c 0
 280 27 280 14 280 4 c 0
EndSplineSet
Colour: ff00ff
EndChar

StartChar: u1D5C8.inferior
Encoding: 1114126 -1 76
Width: 359
Flags: W
HStem: -106 31<145.991 222.035> 141 31<136.591 217.503>
VStem: 38 79<-47.8677 110.106> 241 80<-43.3506 113.233>
LayerCount: 2
Fore
SplineSet
181 172 m 0
 265.4 172 319 117.8 319 33 c 0
 319 -47.3 260.2 -106 179 -106 c 0
 98.8 -106 40 -52.6 40 27 c 0
 40 114.1 94.7 172 181 172 c 0
114 41 m 0
 114 -36.3 140.7 -77 188 -77 c 0
 223.3 -77 244 -44.7 244 16 c 0
 244 88.4 236.5 143 176 143 c 0
 125.3 143 114 99.6 114 41 c 0
EndSplineSet
EndChar

StartChar: u1D5C9.inferior
Encoding: 1114127 -1 77
Width: 305
VWidth: 442
Flags: W
HStem: -118 27<115.523 201.809> 129 31<135.695 207.412>
VStem: 51 49<-254.354 -105 -81.34 105.511 111 145> 240 59<-54.067 101.934>
LayerCount: 2
Fore
SplineSet
100 75 m 1
 100 -64 l 1
 122 -89 148 -91 158 -91 c 0
 224 -91 240 -31 240 20 c 0
 240 90 209 129 171 129 c 0
 150 129 114 108 100 75 c 1
51 -132 m 2
 51 34 l 2
 51 80 50 117 45 143 c 1
 46 145 l 1
 71 147 84 154 100 160 c 1
 104 160 105 158 105 154 c 0
 102 135 100 111 100 111 c 1
 101 111 l 1
 130 154 168 160 188 160 c 0
 257 160 299 94 299 28 c 0
 299 -59 242 -118 162 -118 c 0
 140 -118 116 -114 100 -105 c 1
 100 -132 l 2
 100 -179 102 -221 107 -256 c 1
 105 -258 l 1
 105 -258 97 -256 76 -256 c 0
 54 -256 45 -258 45 -258 c 1
 45 -256 l 1
 50 -223 51 -178 51 -132 c 2
EndSplineSet
Colour: ff00ff
EndChar

StartChar: u1D5CA.inferior
Encoding: 1114128 -1 78
Width: 308
VWidth: 442
Flags: W
ItalicCorrection: 30
HStem: -119 39<144.804 235.292> 125 33<141.264 220.396>
VStem: 39 81<-57.1357 88.5854> 241 71<-254.709 -96 -75.7464 109.404>
LayerCount: 2
Fore
SplineSet
241 83 m 1
 224.3 111 204 125 180 125 c 0
 140 125 120 92.3 120 27 c 0
 120 -44.3 144.7 -80 194 -80 c 0
 211.3 -80 227 -74.7 241 -64 c 1
 241 83 l 1
241 -96 m 1
 219.7 -111.3 195 -119 167 -119 c 0
 125.7 -119 95 -108.7 75 -88 c 1
 51 -61.3 39 -27 39 15 c 0
 39 54.3 54.3 88.3 85 117 c 0
 115 144.3 149.3 158 188 158 c 0
 223.3 158 250.3 149.7 269 133 c 1
 278 148 l 2
 282.7 156 289.3 160 298 160 c 0
 307.3 160 312 155 312 145 c 2
 312 -133 l 2
 312 -187.7 314 -228.7 318 -256 c 1
 317 -258 l 1
 304.3 -256.7 291 -256 277 -256 c 0
 262.3 -256 248.7 -256.7 236 -258 c 1
 235 -256 l 1
 239 -230 241 -189 241 -133 c 2
 241 -96 l 1
EndSplineSet
Colour: ff00ff
EndChar

StartChar: u1D5CB.inferior
Encoding: 1114129 -1 79
Width: 282
VWidth: 952
Flags: W
LayerCount: 2
Fore
SplineSet
158 105 m 1
 182.7 141.7 208.7 160 236 160 c 0
 242.7 160 251 158.7 261 156 c 1
 264 153 l 1
 251 92 l 1
 246 91 l 1
 236 99 224 103 210 103 c 0
 200.7 103 191 99.3 181 92 c 0
 165.7 81.3 158 65.7 158 45 c 2
 158 0 l 2
 158 -45.3 160.3 -82.7 165 -112 c 1
 163 -114 l 1
 147.7 -112.7 133 -112 119 -112 c 0
 104.3 -112 91.3 -112.7 80 -114 c 1
 79 -112 l 1
 83 -84 85 -46.7 85 0 c 2
 85 44 l 2
 85 94 79 130.3 75 153 c 1
 76 155 l 1
 105.5 154.5 126.5 156.5 151 160 c 0
 154.3 160 156 158 156 154 c 0
 156 142 156 127 156 107 c 1
 158 105 l 1
EndSplineSet
Colour: ff00ff
EndChar

StartChar: u1D5CC.inferior
Encoding: 1114130 -1 80
Width: 276
VWidth: 625
Flags: W
HStem: -118 27<89.0145 163.547> -101 59<48 73.5723> 86 58<192.5 215> 132 28<113.902 181.925>
VStem: 47 61<60.4344 129.429> 173 65<-84.1725 -11.5883>
LayerCount: 2
Fore
SplineSet
60 -41 m 1
 77.3 -74.3 99.7 -91 127 -91 c 0
 157.7 -91 173 -76.7 173 -48 c 0
 173 -24.7 155.7 -8 121 2 c 0
 71.7 16 47 43.3 47 84 c 0
 47 105.3 57 123.3 77 138 c 0
 97 152.7 121.3 160 150 160 c 0
 181.3 160 206.7 154.7 226 144 c 1
 227 142 l 1
 215 86 l 1
 205 86 l 1
 190.3 116.7 171.3 132 148 132 c 0
 121.3 132 108 120 108 96 c 0
 108 74 121 60 147 54 c 0
 207.7 40 238 10 238 -36 c 0
 238 -56 228.7 -74 210 -90 c 0
 188.7 -108.7 159.3 -118 122 -118 c 0
 96 -118 68 -112.3 38 -101 c 1
 48 -42 l 1
 60 -41 l 1
EndSplineSet
Colour: ff00ff
EndChar

StartChar: u1D5CD.inferior
Encoding: 1114131 -1 81
Width: 206
VWidth: 523
Flags: W
HStem: -118 33<90.5 166.861> 127 27<17 59 108 185.13>
VStem: 59 49<-84.291 127 154 231>
LayerCount: 2
Fore
SplineSet
59 154 m 1
 59 190 59 203 55 229 c 1
 56 231 l 1
 81 233 90 240 106 246 c 1
 110 246 112 245 112 240 c 0
 109 204 108 200 108 154 c 1
 181 154 l 2
 184 154 186 152 186 150 c 2
 186 135 l 2
 186 129 177 127 171 127 c 2
 108 127 l 1
 108 38 l 2
 108 1 107 -25 107 -44 c 0
 107 -69 110 -85 127 -85 c 0
 143 -85 159 -84 176 -74 c 1
 184 -89 l 1
 160 -111 131 -118 105 -118 c 0
 76 -118 57 -98 57 -69 c 0
 57 -50 59 -6 59 31 c 2
 59 127 l 1
 20 127 l 2
 18 127 17 127 17 129 c 2
 17 152 l 2
 17 154 18 154 19 154 c 2
 59 154 l 1
EndSplineSet
Colour: ff00ff
EndChar

StartChar: u1D5CE.inferior
Encoding: 1114132 -1 82
Width: 400
VWidth: 442
Flags: W
HStem: -118 48<146.989 219.393>
VStem: 69 73<-66.9033 152.127> 247 73<-48.1609 152.896>
LayerCount: 2
Fore
SplineSet
247 -72 m 1
 218.3 -102.7 187.7 -118 155 -118 c 0
 126.3 -118 104.3 -109.3 89 -92 c 0
 75 -76.7 68.3 -57.3 69 -34 c 2
 70 43 l 2
 70.7 77 69 114 65 154 c 1
 66 156 l 1
 79.3 154.7 93 154 107 154 c 0
 121.7 154 135 154.7 147 156 c 1
 148 154 l 1
 146.7 146.7 145 109.7 143 43 c 2
 142 -13 l 2
 141.3 -51 153 -70 177 -70 c 0
 192.3 -70 207.3 -64 222 -52 c 0
 238.7 -38.7 247 -23.7 247 -7 c 2
 247 43 l 2
 247 93.7 245.3 130.7 242 154 c 1
 243 156 l 1
 255.7 154.7 269 154 283 154 c 0
 297.7 154 311.7 154.7 325 156 c 1
 325 154 l 1
 321.7 132 320 95 320 43 c 2
 320 7 l 2
 320 -34.3 323.3 -74 330 -112 c 1
 329 -114 l 1
 321 -112.7 308 -112 290 -112 c 0
 277.3 -112 266 -112.7 256 -114 c 0
 252.7 -114 251 -113.3 251 -112 c 2
 248 -72 l 1
 247 -72 l 1
EndSplineSet
Colour: ff00ff
EndChar

StartChar: u1D5CF.inferior
Encoding: 1114133 -1 83
Width: 314
VWidth: 157
Flags: W
HStem: -114 270
VStem: 20 291
LayerCount: 2
Fore
SplineSet
20 156 m 1
 26.7 154.7 40.7 154 62 154 c 0
 86.7 154 101.7 154.7 107 156 c 1
 134.3 70.7 158 4 178 -44 c 1
 180 -44 l 1
 193.3 -14.7 218.3 52 255 156 c 1
 259 154.7 268 154 282 154 c 0
 298 154 307.7 154.7 311 156 c 1
 258.3 44 218.3 -46 191 -114 c 1
 187 -112.7 178.3 -112 165 -112 c 0
 146.3 -112 135 -112.7 131 -114 c 1
 89 -3.3 52 86.7 20 156 c 1
EndSplineSet
Colour: ff00ff
EndChar

StartChar: u1D5D0.inferior
Encoding: 1114134 -1 84
Width: 519
Flags: W
LayerCount: 2
Fore
SplineSet
20 155 m 1
 26.7 154.3 41.7 154 65 154 c 0
 85.7 154 98.7 154.3 104 155 c 1
 130.7 70.3 156.7 0 182 -56 c 1
 188 -56 l 1
 205.3 -19.3 223.7 24.7 243 76 c 1
 208 156 l 1
 214.7 154.7 228.3 154 249 154 c 0
 272.3 154 286.7 154.7 292 156 c 1
 318.7 70.7 342.3 4 363 -44 c 1
 368 -44 l 1
 380.7 -14.7 405.7 52 443 156 c 1
 447 154.7 456 154 470 154 c 0
 485.3 154 495 154.7 499 156 c 1
 446.3 44 406.3 -46 379 -114 c 1
 375 -112.7 366.3 -112 353 -112 c 0
 334.3 -112 323 -112.7 319 -114 c 1
 262 30 l 1
 236.7 -23.3 216.3 -71.3 201 -114 c 1
 197 -112.7 184.7 -112 164 -112 c 0
 146.7 -112 136 -112.7 132 -114 c 1
 94 -15.3 56.7 74.3 20 155 c 1
EndSplineSet
Colour: ff00ff
EndChar

StartChar: u1D5D1.inferior
Encoding: 1114135 -1 85
Width: 327
Flags: W
HStem: -102 270
VStem: 20 287
DStem2: 22 -102 84 -102 0.572315 0.820034<24.1778 152.552> 170 82 126 28 0.597206 -0.802088<-101.635 0 59.2368 174.51>
LayerCount: 2
Fore
SplineSet
22 168 m 1
 28.7 166.7 42.7 166 68 166 c 0
 90.7 166 105.7 166.7 113 168 c 1
 128.3 142.7 149.3 114 172 82 c 1
 199.3 117.3 220.7 146 236 168 c 1
 240.7 166.7 250 166 268 166 c 0
 282.7 166 292 166.7 296 168 c 1
 195 50 l 1
 203 39 l 1
 228.3 2.3 263 -44.7 307 -102 c 1
 301 -100.7 286.7 -100 264 -100 c 0
 238.7 -100 225 -100.7 219 -102 c 1
 206.3 -81.3 184.3 -49.3 153 -6 c 1
 84 -102 l 1
 80 -100.7 71 -100 57 -100 c 0
 38.3 -100 28.7 -100.7 24 -102 c 1
 130 28 l 1
 22 168 l 1
EndSplineSet
EndChar

StartChar: u1D5D2.inferior
Encoding: 1114136 -1 86
Width: 338
VWidth: 141
Flags: W
LayerCount: 2
Fore
SplineSet
68 154 m 0
 88 154 100.3 154.7 105 156 c 1
 118.3 115.3 142.7 52.7 178 -32 c 1
 202 22 225.7 84.7 249 156 c 1
 252.3 154.7 262.7 154 280 154 c 0
 292.7 154 301 154.7 305 156 c 1
 216.3 -25.3 159.3 -157.3 134 -240 c 1
 127.3 -238 117.7 -237 105 -237 c 0
 90.3 -237 79.7 -238 73 -240 c 1
 98.3 -197.3 120.3 -154.3 139 -111 c 1
 138 -107 l 1
 108 -29 71.3 58.7 28 156 c 1
 33.3 154.7 46.7 154 68 154 c 0
EndSplineSet
Colour: ff00ff
EndChar

StartChar: u1D5D3.inferior
Encoding: 1114137 -1 87
Width: 297
VWidth: 523
Flags: W
HStem: -113 45<122.313 271> -112 37<120 268.594> 118 36<46.9392 176>
VStem: 22 251
DStem2: 34 -92 120 -75 0.563001 0.826456<62.4678 253.502>
LayerCount: 2
Fore
SplineSet
176 118 m 1
 130 116.7 86.3 114.3 45 111 c 1
 43 113 l 1
 44.3 119.7 45 126.7 45 134 c 2
 43 154 l 1
 45 156 l 1
 53.7 154.7 65 154 79 154 c 2
 223 154 l 2
 230.3 154 240.7 154.7 254 156 c 2
 273 158 l 2
 275 158 276 156.7 276 154 c 1
 273.3 150.7 267.3 142 258 128 c 2
 120 -75 l 1
 169.3 -74.3 219.7 -72 271 -68 c 1
 272 -70 l 1
 271.3 -76.7 271 -84 271 -92 c 2
 272 -112 l 1
 271 -113 l 1
 261.7 -112.3 250 -112 236 -112 c 2
 96 -112 l 2
 84.7 -112 60 -112.3 22 -113 c 1
 21 -107 l 1
 26.3 -101.7 30.7 -96.7 34 -92 c 2
 176 118 l 1
EndSplineSet
Colour: ff00ff
EndChar

StartChar: u1D7E2.inferior
Encoding: 1114138 -1 88
Width: 307
Flags: W
HStem: -106 23<127.418 173.707> 200 24<128.385 177.938>
VStem: 39 63<-47.8577 155.729> 201 62<-47.3284 161.026>
LayerCount: 2
Fore
SplineSet
102 50 m 0
 102 -38.7 118.3 -83 151 -83 c 0
 184.3 -83 201 -31.7 201 71 c 0
 201 109 198.3 137.7 193 157 c 0
 185.7 185.7 172 200 152 200 c 0
 118.7 200 102 150 102 50 c 0
66 -58 m 0
 48 -28.7 39 9 39 55 c 0
 39 105 50.7 146.3 74 179 c 0
 96 209 122 224 152 224 c 0
 182.7 224 208.3 209.7 229 181 c 0
 251.7 150.3 263 110 263 60 c 0
 263 3.3 251 -39.7 227 -69 c 0
 206.3 -93.7 180.7 -106 150 -106 c 0
 114 -106 86 -90 66 -58 c 0
EndSplineSet
EndChar

StartChar: u1D7E3.inferior
Encoding: 1114139 -1 89
Width: 384
VWidth: 407
Flags: W
HStem: 150 23<113 151.946> 193 20<212.333 247>
VStem: 181 62<-109.683 152.991>
LayerCount: 2
Fore
SplineSet
243 -11 m 2
 243 -49.7 245.3 -83 250 -111 c 1
 249 -113 l 1
 237 -111.7 224.3 -111 211 -111 c 0
 198.3 -111 186.3 -111.7 175 -113 c 1
 175 -111 l 1
 179 -87 181 -53.7 181 -11 c 2
 181 119 l 2
 181 141.7 177.7 153 171 153 c 0
 147.7 153 128.3 152 113 150 c 1
 112 173 l 1
 134 178.3 178.7 191.7 246 213 c 0
 248 213 249 212 249 210 c 0
 245 182.7 243 154 243 124 c 2
 243 -11 l 2
EndSplineSet
Colour: ff00ff
EndChar

StartChar: u1D7E4.inferior
Encoding: 1114140 -1 90
Width: 311
VWidth: 407
Flags: W
HStem: -114 55<116 253.726> 184 29<96.1547 166.655>
VStem: 184 72<73.3868 174.552>
DStem2: 111 -3 151 -13 0.713809 0.700341<-33.5806 110.914>
LayerCount: 2
Fore
SplineSet
71 139 m 1
 58 139 l 1
 47 181 l 1
 49 183 l 1
 71 203 102 213 142 213 c 0
 176 213 203 206 223 192 c 0
 245 177.3 256 156.3 256 129 c 0
 256 101.7 238.7 71.7 204 39 c 2
 151 -13 l 2
 127.7 -36.3 116 -51.7 116 -59 c 1
 159 -59 l 2
 179 -59 212 -57.3 258 -54 c 1
 256 -63.3 255 -75 255 -89 c 0
 255 -96.3 256 -104.7 258 -114 c 1
 222.7 -112.7 192 -112 166 -112 c 0
 146.7 -112 104.3 -112.7 39 -114 c 1
 38 -112 l 1
 38 -89.3 62.3 -53 111 -3 c 1
 151 36 l 2
 173 58.7 184 90 184 130 c 0
 184 145.3 178.7 158.3 168 169 c 0
 158.7 179 148.7 184 138 184 c 0
 110 184 87.7 169 71 139 c 1
EndSplineSet
Colour: ff00ff
EndChar

StartChar: u1D7E5.inferior
Encoding: 1114141 -1 91
Width: 313
VWidth: 406
Flags: W
LayerCount: 2
Fore
SplineSet
171 -77 m 0
 185.7 -65 193 -45.3 193 -18 c 0
 193 23.3 173.3 44 134 44 c 0
 124.7 44 118 43.7 114 43 c 1
 114 68 l 1
 162.7 70 187 92.7 187 136 c 0
 187 150 183.3 161.7 176 171 c 0
 168 180.3 159 185 149 185 c 0
 131 185 117.3 181 108 173 c 0
 100 167 91.3 155.3 82 138 c 1
 69 138 l 1
 58 180 l 1
 59 183 l 1
 81.7 202.3 113 212 153 212 c 0
 180.3 212 202.7 207 220 197 c 0
 239.3 185 249 167.3 249 144 c 0
 249 100.7 228 73.7 186 63 c 1
 186 61 l 1
 208 59 226 52 240 40 c 0
 256.7 26 265 7.3 265 -16 c 0
 265 -50.7 251 -77 223 -95 c 0
 199.7 -110.3 170 -118 134 -118 c 0
 99.3 -118 70.7 -108 48 -88 c 1
 46 -86 l 1
 58 -44 l 1
 70 -43 l 1
 80.7 -61.7 88.7 -73.3 94 -78 c 0
 103.3 -86 117 -90 135 -90 c 0
 149 -90 161 -85.7 171 -77 c 0
EndSplineSet
Colour: ff00ff
EndChar

StartChar: u1D7E6.inferior
Encoding: 1114142 -1 92
Width: 288
Flags: W
HStem: -22 35<60 157 220 263.804>
VStem: 157 63<-98.7812 -22 13 166 176.673 217.75>
DStem2: 25 10 60 13 0.535446 0.844569<21.2743 202.432>
LayerCount: 2
Fore
SplineSet
49 -22 m 2
 29.7 -22 19.7 -19.7 19 -15 c 0
 19 -3.7 21 4.7 25 10 c 0
 65.7 64.7 111.3 134.3 162 219 c 1
 162 221 l 1
 166 219.7 174.7 219 188 219 c 0
 200.7 219 212.7 219.7 224 221 c 1
 225 219 l 1
 221.7 192.3 220 166 220 140 c 2
 220 13 l 1
 258 13 l 2
 262.7 13 265 9.3 265 2 c 0
 265 -1.3 263.7 -6 261 -12 c 0
 257 -18.7 253.3 -22 250 -22 c 2
 220 -22 l 1
 220 -48 221.7 -74 225 -100 c 1
 224 -102 l 1
 212.7 -100.7 200.7 -100 188 -100 c 0
 174.7 -100 162.3 -100.7 151 -102 c 1
 151 -100 l 1
 155 -70 157 -44 157 -22 c 1
 49 -22 l 2
60 13 m 1
 157 13 l 1
 157 166 l 1
 60 13 l 1
EndSplineSet
EndChar

StartChar: u1D7E7.inferior
Encoding: 1114143 -1 93
Width: 325
Flags: W
HStem: -106 27<109.613 176.831> 71 31<110.679 179.994> 167 51<117.676 246>
VStem: 196 65<-62.4966 62.02>
DStem2: 76 62 110 93 0.105655 0.994403<34.4188 112.891>
LayerCount: 2
Fore
SplineSet
59 -76 m 1
 57 -74 l 1
 68 -32 l 1
 81 -31 l 1
 99 -63 120.7 -79 146 -79 c 0
 159.3 -79 170.7 -73.3 180 -62 c 0
 190.7 -48.7 196 -29.7 196 -5 c 0
 196 45.7 179 71 145 71 c 0
 127 71 107.7 66.7 87 58 c 1
 76 62 l 1
 93 222 l 1
 117.7 219.3 137.7 218 153 218 c 0
 181.7 218 214.3 220 251 224 c 1
 254 223 l 1
 246 170 l 1
 224.7 168 202.7 167 180 167 c 0
 162.7 167 142 168.3 118 171 c 1
 110 93 l 1
 126 99 142.3 102 159 102 c 0
 188.3 102 213 92 233 72 c 0
 251.7 53.3 261 30.7 261 4 c 0
 261 -29.3 249.7 -56.3 227 -77 c 0
 205 -96.3 177.7 -106 145 -106 c 0
 109.7 -106 81 -96 59 -76 c 1
EndSplineSet
EndChar

StartChar: u1D7E8.inferior
Encoding: 1114144 -1 94
Width: 307
Flags: W
HStem: -106 24<126.21 180.082> 66 25<110.525 181.066> 204 20<198.298 247>
VStem: 38 65<-60.5491 82.9507> 197 67<-65.5122 48.4292>
LayerCount: 2
Fore
SplineSet
158 91 m 0
 195.3 91 223.3 80.7 242 60 c 0
 256.7 42.7 264 21 264 -5 c 0
 264 -31 255.3 -53.3 238 -72 c 0
 218 -94.7 190.3 -106 155 -106 c 0
 127.7 -106 105.7 -100.3 89 -89 c 0
 55 -67.7 38 -28.3 38 29 c 0
 38 75.7 55 118 89 156 c 0
 129 201.3 181.7 224 247 224 c 1
 249 204 l 1
 217 201.3 192 194.3 174 183 c 0
 138.7 162.3 116.7 127 108 77 c 1
 122 86.3 138.7 91 158 91 c 0
103 27 m 0
 103 -15.7 108.7 -45.7 120 -63 c 0
 128 -75.7 140.7 -82 158 -82 c 0
 168 -82 176.7 -76.3 184 -65 c 0
 192.7 -51.7 197 -33 197 -9 c 0
 197 12.3 195 28.3 191 39 c 0
 183 57 168.3 66 147 66 c 0
 130.3 66 116 61 104 51 c 1
 103.3 43 103 35 103 27 c 0
EndSplineSet
EndChar

StartChar: u1D7E9.inferior
Encoding: 1114145 -1 95
Width: 328
Flags: W
HStem: 173 47<82.0198 226>
VStem: 79 201
LayerCount: 2
Fore
SplineSet
79 167 m 1
 81 180.3 82 190 82 196 c 0
 82 200.7 81 209.7 79 223 c 1
 96.3 221 149.7 220 239 220 c 0
 251 220 262.3 221.3 273 224 c 1
 280 213 l 1
 230 91.7 190 -14 160 -104 c 1
 113 -106 l 1
 111 -102 l 1
 138.3 -41.3 176.7 50.3 226 173 c 1
 192.7 173 143.7 171 79 167 c 1
EndSplineSet
EndChar

StartChar: u1D7EA.inferior
Encoding: 1114146 -1 96
Width: 306
Flags: W
HStem: -106 21<123.926 187.049> 203 21<126.02 182.744>
VStem: 41 60<-73.5586 26.5923> 59 56<116.12 199.804> 195 56<111.216 199.45> 206 61<-72.1333 23.0825>
DStem2: 164 98 110 73 0.843158 -0.537666<-71.5338 -21.2745 -4.38622 5.58232 23.8528 93.6629>
LayerCount: 2
Fore
SplineSet
115 158 m 0
 115 138.7 126 122 148 108 c 2
 164 98 l 1
 184.7 113.3 195 131.7 195 153 c 0
 195 186.3 181.7 203 155 203 c 0
 128.3 203 115 188 115 158 c 0
184 85 m 1
 217 64 l 2
 250.3 42.7 267 16.3 267 -15 c 0
 267 -46.3 253 -71 225 -89 c 0
 206.3 -100.3 181.3 -106 150 -106 c 0
 119.3 -106 94 -99 74 -85 c 0
 52 -69.7 41 -49 41 -23 c 0
 41 11 67 41 119 67 c 1
 110 73 l 1
 76 94.3 59 119.3 59 148 c 0
 59 171.3 67 189.7 83 203 c 0
 100.3 217 125.3 224 158 224 c 0
 187.3 224 210.3 218 227 206 c 0
 243 194 251 177.7 251 157 c 0
 251 126.3 228.7 102.3 184 85 c 1
206 -26 m 0
 206 0 191.7 22 163 40 c 2
 138 55 l 1
 113.3 37 101 11 101 -23 c 0
 101 -41.7 106.3 -56.7 117 -68 c 0
 127 -79.3 138.3 -85 151 -85 c 0
 187.7 -85 206 -65.3 206 -26 c 0
EndSplineSet
EndChar

StartChar: u1D7EB.inferior
Encoding: 1114147 -1 97
Width: 307
Flags: W
HStem: -106 20<66 115.226> 26 25<133.622 202.033> 200 24<133.214 187.926>
VStem: 50 66<69.5404 184.355> 211 65<35.3217 177.885>
LayerCount: 2
Fore
SplineSet
156 26 m 0
 118 26 90 36.7 72 58 c 0
 57.3 74.7 50 96.3 50 123 c 0
 50 148.3 58.3 170.7 75 190 c 0
 95 212.7 123 224 159 224 c 0
 185.7 224 207.7 218.3 225 207 c 0
 259 185 276 145.7 276 89 c 0
 276 42.3 258.7 -0.299999 224 -39 c 0
 184 -83.7 131.3 -106 66 -106 c 1
 65 -86 l 1
 96.3 -83.3 121.3 -76.3 140 -65 c 0
 174.7 -45 196.7 -9.7 206 41 c 1
 192 31 175.3 26 156 26 c 0
211 91 m 0
 211 133.7 205.3 163.7 194 181 c 0
 185.3 193.7 172.7 200 156 200 c 0
 145.3 200 136.3 194.3 129 183 c 0
 120.3 169.7 116 150.7 116 126 c 0
 116 105.3 118.3 89.7 123 79 c 0
 130.3 60.3 145 51 167 51 c 0
 183 51 197.3 56 210 66 c 1
 210.7 74.7 211 83 211 91 c 0
EndSplineSet
EndChar

StartChar: u1D5BA.superior
Encoding: 1114148 -1 98
Width: 297
Flags: W
ItalicCorrection: 26
HStem: 358 37<112.47 167.758 269.222 300.453> 603 33<106.794 182.321>
VStem: 34 74<401.283 470.121> 193 68<416.284 502 532.032 597.125>
DStem2: 190 532 193 502 0.972224 0.234054<-88.4555 -4.10494>
LayerCount: 2
Fore
SplineSet
144 489 m 2
 128 484.3 117.7 476.7 113 466 c 0
 109.7 458.7 108 446.7 108 430 c 0
 108 421.3 110.3 413.3 115 406 c 1
 121 398.7 128.3 395 137 395 c 0
 153.7 395 169 402 183 416 c 0
 189 422 192 431.3 192 444 c 2
 193 502 l 1
 144 489 l 2
259 414 m 2
 259 404 262.3 397.7 269 395 c 0
 273.7 392.3 283 391 297 391 c 1
 300.3 388.3 302.3 384 303 378 c 1
 285 364.7 264.7 358 242 358 c 0
 215.3 358 199 370 193 394 c 1
 191 394 l 1
 164.3 370 138.3 358 113 358 c 0
 90.3 358 71.7 363.7 57 375 c 0
 41.7 387.7 34 404.3 34 425 c 0
 34 445.7 43.7 464.7 63 482 c 0
 81.7 499.3 106 511.7 136 519 c 2
 190 532 l 2
 192 532.7 193 535 193 539 c 0
 193 581.7 178.7 603 150 603 c 0
 122 603 98.7 586.7 80 554 c 1
 66 554 l 1
 54 601 l 1
 56 603 l 1
 80.7 625 114 636 156 636 c 0
 191.3 636 218.3 627.7 237 611 c 0
 253 596.3 261 571.3 261 536 c 2
 259 414 l 2
EndSplineSet
Colour: ff00ff
EndChar

StartChar: u1D5BB.superior
Encoding: 1114149 -1 99
Width: 344
Flags: W
HStem: 359 27<142.44 209.408> 567 34<153.323 223.918>
VStem: 70 64<390.12 558.797 571 722> 240 65<417.707 557.014>
LayerCount: 2
Fore
SplineSet
134 413 m 1
 140.7 395 156 386 180 386 c 0
 194.7 386 208 394.7 220 412 c 0
 233.3 431.3 240 455.3 240 484 c 0
 240 539.3 223 567 189 567 c 0
 171.7 567 153.3 560 134 546 c 1
 134 413 l 1
134 571 m 1
 160 591 183.7 601 205 601 c 0
 233 601 256.7 592 276 574 c 0
 295.3 556 305 529.7 305 495 c 0
 305 452.3 290.7 418.3 262 393 c 0
 237.3 370.3 208.3 359 175 359 c 0
 148.3 359 128 368.3 114 387 c 1
 100 373.7 91 364 87 358 c 1
 79 358 72.7 359.7 68 363 c 1
 69.3 372.3 70 385.7 70 403 c 2
 70 620 l 2
 70 667.3 68.3 701 65 721 c 1
 66 722 l 1
 85.3 723.3 108 729.3 134 740 c 1
 137.3 740 139 738.3 139 735 c 0
 135.7 706.3 134 672.3 134 633 c 2
 134 571 l 1
EndSplineSet
EndChar

StartChar: u1D5BC.superior
Encoding: 1114150 -1 100
Width: 304
Flags: W
HStem: 358 35<148.872 245.235> 553 63<235.622 259> 604 32<143.861 222.553>
VStem: 42 74<424.226 577.826>
LayerCount: 2
Fore
SplineSet
135 579 m 0
 122.3 561 116 536.3 116 505 c 0
 116 474.3 122.7 448.3 136 427 c 0
 149.3 404.3 166 393 186 393 c 0
 218.7 393 242 401.7 256 419 c 1
 266 419 l 1
 266 409.7 267 400.3 269 391 c 1
 242.3 369 209.3 358 170 358 c 0
 131.3 358 99.7 371 75 397 c 1
 53 421.7 42 452.3 42 489 c 0
 42 536.3 54.7 573 80 599 c 0
 104 623.7 137.3 636 180 636 c 0
 215.3 636 246 629.3 272 616 c 1
 274 614 l 1
 259 554 l 1
 248 553 l 1
 231.3 587 210.7 604 186 604 c 0
 164.7 604 147.7 595.7 135 579 c 0
EndSplineSet
EndChar

StartChar: u1D5BD.superior
Encoding: 1114151 -1 101
Width: 348
Flags: W
HStem: 358 36<124.774 191.577> 571 29<130.39 204.492>
VStem: 44 64<405.947 546.372> 219 64<405.634 562.492 588 721>
LayerCount: 2
Fore
SplineSet
219 539 m 1
 205.7 560.3 188.7 571 168 571 c 0
 128 571 108 541.3 108 482 c 0
 108 423.3 126 394 162 394 c 0
 182.7 394 201.7 405 219 427 c 1
 219 539 l 1
219 398 m 1
 191.7 371.3 166 358 142 358 c 0
 112 358 88 369 70 391 c 0
 52.7 411.7 44 439 44 473 c 0
 44 515 59.3 548 90 572 c 0
 114 590.7 144 600 180 600 c 0
 192 600 205 596 219 588 c 1
 219 619 l 2
 219 666.3 217.3 700 214 720 c 1
 215 721 l 1
 234.3 722.3 257 728.3 283 739 c 1
 286.3 739 288 737.3 288 734 c 0
 284.7 705.3 283 671.3 283 632 c 2
 283 467 l 2
 283 431 286 396.7 292 364 c 1
 291 362 l 1
 283.7 363.3 272.3 364 257 364 c 0
 246.3 364 236.7 363.3 228 362 c 0
 224.7 362 223 362.7 223 364 c 2
 220 398 l 1
 219 398 l 1
EndSplineSet
EndChar

StartChar: u1D5BE.superior
Encoding: 1114152 -1 102
Width: 311
VWidth: 609
Flags: W
HStem: 370 42<120.084 233.84> 520 28<100 191.998> 618 30<121.369 182.343>
VStem: 27 72<432.828 520> 192 75<527.333 606.176>
LayerCount: 2
Fore
SplineSet
183 548 m 2
 189 548 192 552.7 192 562 c 0
 192 599.3 179 618 153 618 c 0
 141 618 130.3 613 121 603 c 0
 109.7 590.3 102.7 572 100 548 c 1
 183 548 l 2
266 421 m 1
 240.7 387 203.3 370 154 370 c 0
 110.7 370 78 383 56 409 c 0
 36.7 432.3 27 462.3 27 499 c 0
 27 543.7 40.7 580.3 68 609 c 0
 92.7 635 121 648 153 648 c 0
 191.7 648 221 636 241 612 c 0
 258.3 590.7 267 563.7 267 531 c 0
 267 523.7 263.3 520 256 520 c 2
 99 520 l 1
 99 448 121.3 412 166 412 c 0
 205.3 412 234.3 422 253 442 c 1
 261.7 437.3 266 430.3 266 421 c 1
EndSplineSet
Colour: ff00ff
EndChar

StartChar: u1D5BF.superior
Encoding: 1114153 -1 103
Width: 218
Flags: W
HStem: 570 24<25 60 124 185.997> 702 37<128.607 203.229>
VStem: 60 64<365.102 570 594 682.95>
LayerCount: 2
Fore
SplineSet
193 739 m 0
 204.3 739 212.3 737.3 217 734 c 2
 218 733 l 1
 215.3 729 213 720.3 211 707 c 2
 205 678 l 1
 195 678 l 1
 185.7 694 176 702 166 702 c 0
 136 702 121 685 121 651 c 0
 121 647.7 121.3 639.3 122 626 c 0
 123.3 613.3 124 604.7 124 600 c 2
 124 594 l 1
 182 594 l 2
 184.7 594 186 593 186 591 c 2
 186 577 l 2
 186 572.3 182 570 174 570 c 2
 124 570 l 1
 124 471 l 2
 124 423 125.3 387.3 128 364 c 1
 127 362 l 1
 115.7 363.3 104 364 92 364 c 0
 79.3 364 67.7 363.3 57 362 c 1
 56 364 l 1
 58.7 382 60 417.7 60 471 c 2
 60 570 l 1
 25 570 l 2
 23 570 22 571 22 573 c 2
 22 584 l 2
 22 590.7 26 594 34 594 c 2
 60 594 l 1
 60 610 l 2
 60 645.3 72.3 676 97 702 c 0
 121 726.7 153 739 193 739 c 0
EndSplineSet
EndChar

StartChar: u1D5C0.superior
Encoding: 1114154 -1 104
Width: 344
Flags: W
HStem: 218 26<117.535 212.807> 354 52<127 237.989> 452 25<131.446 191.054> 612 24<128.481 188.062>
VStem: 32 61<258.695 338.805> 43 72<486.924 601.494> 46 60<402.826 450.074> 207 72<488.3 595.385> 247 71<272.584 343.282>
LayerCount: 2
Fore
SplineSet
248 476 m 0
 226.7 460 198 452 162 452 c 0
 144 452 128 455 114 461 c 1
 108.7 451.7 106 441.7 106 431 c 0
 106 411 117.7 401 141 401 c 1
 153 403 l 2
 169 405 182 406 192 406 c 0
 276 406 318 378.3 318 323 c 0
 318 291.7 298 265.7 258 245 c 0
 222.7 227 183 218 139 218 c 0
 111.7 218 88.3 223 69 233 c 0
 44.3 245.7 32 264 32 288 c 0
 32 308.7 36.7 325 46 337 c 1
 51.3 339.7 58.3 344 67 350 c 2
 86 363 l 1
 59.3 370.3 46 386.3 46 411 c 0
 46 430.3 61 449 91 467 c 1
 74 478 l 1
 53.3 495.3 43 516.7 43 542 c 0
 43 571.3 53.7 594.3 75 611 c 0
 95.7 627.7 123 636 157 636 c 0
 174.3 636 188.7 634.3 200 631 c 1
 210 631.7 230.3 632.3 261 633 c 0
 282.3 634.3 298.7 635.3 310 636 c 1
 312 634 l 1
 310.7 628.7 310 622.7 310 616 c 0
 310 610.7 310.7 605.3 312 600 c 1
 310 598 l 1
 248 603 l 1
 268.7 589 279 569 279 543 c 0
 279 515 268.7 492.7 248 476 c 0
156 612 m 0
 128.7 612 115 591.7 115 551 c 0
 115 501.7 130.7 477 162 477 c 0
 174.7 477 185 481.7 193 491 c 0
 202.3 501.7 207 517 207 537 c 0
 207 587 190 612 156 612 c 0
93 301 m 0
 93 282.3 101 267.7 117 257 c 0
 129 248.3 142 244 156 244 c 0
 182.7 244 204.3 250 221 262 c 0
 238.3 274 247 289.7 247 309 c 0
 247 339 221.3 354 170 354 c 2
 127 354 l 1
 127 354 124 354.7 114 356 c 1
 100 341.3 93 323 93 301 c 0
EndSplineSet
EndChar

StartChar: u1D5C1.superior
Encoding: 1114155 -1 105
Width: 382
Flags: W
TeX: 57 0
HStem: 558 42<173.982 230.938>
VStem: 81 64<365.131 538.589 550 721> 235 64<365.069 556.855>
LayerCount: 2
Fore
SplineSet
81 619 m 2
 81 666.3 79.3 700 76 720 c 1
 77 721 l 1
 96.3 722.3 119 728.3 145 739 c 1
 148.3 739 150 737.3 150 734 c 0
 146.7 705.3 145 671.3 145 632 c 2
 145 599 l 1
 143 550 l 1
 145 549 l 1
 171.7 583 198.7 600 226 600 c 0
 274.7 600 299 573.3 299 520 c 2
 299 460 l 2
 299 418.7 300.7 386.7 304 364 c 1
 303 362 l 1
 291 363.3 279 364 267 364 c 0
 254.3 364 243 363.3 233 362 c 1
 232 364 l 1
 234 382.7 235 414.7 235 460 c 2
 235 508 l 2
 235 541.3 225.7 558 207 558 c 0
 187.7 558 167 543.7 145 515 c 1
 145 460 l 2
 145 420 146 388 148 364 c 1
 147 362 l 1
 137 363.3 125.7 364 113 364 c 0
 100.3 364 88.3 363.3 77 362 c 1
 76 364 l 1
 79.3 386 81 418 81 460 c 2
 81 619 l 2
EndSplineSet
Comment: "Anfang{Spacing modifying letters}" 
Colour: ff00ff
EndChar

StartChar: u1D5C2.superior
Encoding: 1114156 -1 106
Width: 260
VWidth: 952
Flags: W
HStem: 673 69<70.6406 134.203>
VStem: 70 64<365.637 617.728 674.51 740.398>
LayerCount: 2
Fore
SplineSet
68 707 m 0
 68 726 83 742 102 742 c 0
 121 742 137 726 137 707 c 0
 137 688 121 673 102 673 c 0
 83 673 68 688 68 707 c 0
70 510 m 2
 70 556 69 592 64 619 c 1
 65 621 l 1
 90 623 119 630 135 636 c 1
 139 636 141 634 141 630 c 0
 136 592 134 566 134 520 c 2
 134 476 l 2
 134 429 136 399 141 364 c 1
 139 362 l 1
 139 362 124 364 103 364 c 0
 81 364 64 362 64 362 c 1
 64 364 l 1
 69 397 70 430 70 476 c 2
 70 510 l 2
EndSplineSet
EndChar

StartChar: u1D5C3.superior
Encoding: 1114157 -1 107
Width: 280
Flags: MW
TeX: 57 0
LayerCount: 2
Fore
SplineSet
129 759 m 0
 137 767 146.3 771 157 771 c 0
 168.3 771 178 767 186 759 c 0
 193.3 751.7 197 742.3 197 731 c 0
 197 720.3 193.3 711 186 703 c 0
 178 695.7 168.3 692 157 692 c 0
 146.3 692 137 695.7 129 703 c 0
 121.7 711 118 720.3 118 731 c 0
 118 742.3 121.7 751.7 129 759 c 0
122 360 m 2
 121.3 378 121 400.3 121 427 c 2
 121 512 l 2
 121 562 119 597.7 115 619 c 1
 117 621 l 1
 149 623.7 174.7 628.7 194 636 c 1
 198 636 200 634 200 630 c 0
 195.3 599.3 193 563.3 193 522 c 2
 193 386 l 2
 193 334 184.7 296 168 272 c 0
 150 246 113.3 233 58 233 c 0
 40 233 28.3 234.7 23 238 c 1
 22 240 l 1
 24 244 26 254 28 270 c 0
 29.3 288 30.7 299 32 303 c 1
 44 303 l 1
 54.7 284.3 67 275 81 275 c 0
 95 275 105.3 279 112 287 c 0
 119.3 296.3 123 312.7 123 336 c 2
 122 360 l 2
EndSplineSet
Colour: ff00ff
EndChar

StartChar: u1D5C4.superior
Encoding: 1114158 -1 108
Width: 330
Flags: W
VStem: 76 64<365.133 474 494 721>
LayerCount: 2
Fore
SplineSet
76 619 m 2
 76 666.3 74.3 700 71 720 c 1
 72 721 l 1
 91.3 722.3 114 728.3 140 739 c 1
 143.3 739 145 737.3 145 734 c 0
 141.7 705.3 140 671.3 140 632 c 2
 140 494 l 1
 146.7 495.3 152.7 497.7 158 501 c 0
 185.3 522.3 213 553.3 241 594 c 1
 280.3 594 303.3 594.7 310 596 c 1
 311 594 l 1
 305.7 589.3 272.3 555.3 211 492 c 1
 254.3 439.3 291.7 396.7 323 364 c 1
 322 362 l 1
 316.7 363.3 301.3 364 276 364 c 0
 256.7 364 242.3 363.3 233 362 c 1
 193 418 165.3 454 150 470 c 0
 147.3 472 144 473.3 140 474 c 1
 140 471 l 2
 140 423.7 141.7 388 145 364 c 1
 144 362 l 1
 132.7 363.3 120.7 364 108 364 c 0
 95.3 364 83.3 363.3 72 362 c 1
 71 364 l 1
 74.3 386 76 421.7 76 471 c 2
 76 619 l 2
EndSplineSet
EndChar

StartChar: u1D5C5.superior
Encoding: 1114159 -1 109
Width: 226
Flags: W
VStem: 81 64<365.133 721>
LayerCount: 2
Fore
SplineSet
81 619 m 2
 81 666.3 79.3 700 76 720 c 1
 77 721 l 1
 96.3 722.3 119 728.3 145 739 c 1
 148.3 739 150 737.3 150 734 c 0
 146.7 705.3 145 671.3 145 632 c 2
 145 471 l 2
 145 423.7 146.7 388 150 364 c 1
 149 362 l 1
 137.7 363.3 125.7 364 113 364 c 0
 100.3 364 88.3 363.3 77 362 c 1
 76 364 l 1
 79.3 386 81 421.7 81 471 c 2
 81 619 l 2
EndSplineSet
Colour: ff00ff
EndChar

StartChar: u1D5C6.superior
Encoding: 1114160 -1 110
Width: 566
Flags: MW
LayerCount: 2
Fore
SplineSet
421 533 m 2
 421 569.7 409.7 588 387 588 c 0
 366.3 588 344 575 320 549 c 1
 320 541 320 541 320 530 c 2
 320 476 l 2
 320 430.7 322.3 393.3 327 364 c 1
 325 362 l 1
 313 363.3 300 364 286 364 c 0
 272 364 258 363.3 244 362 c 1
 243 364 l 1
 247.7 392 250 429.3 250 476 c 2
 250 538 l 2
 250 558 246.7 571.7 240 579 c 0
 234.7 585 225.7 588 213 588 c 0
 197.7 588 176.3 571.7 149 539 c 1
 149 476 l 2
 149 430.7 151.3 393.3 156 364 c 1
 154 362 l 1
 140.7 363.3 127 364 113 364 c 0
 98.3 364 84.3 363.3 71 362 c 1
 70 364 l 1
 74 392 76 429.3 76 476 c 2
 76 510 l 2
 76 560 74 596.3 70 619 c 1
 71 621 l 1
 102.3 623 128 628 148 636 c 1
 152 636 154 634 154 630 c 0
 152 617.3 149.7 600.3 147 579 c 1
 149 577 l 1
 179.7 616.3 210 636 240 636 c 0
 276.7 636 302 619 316 585 c 1
 348.7 619 379.3 636 408 636 c 0
 465.3 636 494 603 494 537 c 2
 494 476 l 2
 494 430.7 496.3 393.3 501 364 c 1
 499 362 l 1
 485.7 363.3 472 364 458 364 c 0
 443.3 364 429.3 363.3 416 362 c 1
 415 364 l 1
 419 392 421 429.3 421 476 c 2
 421 533 l 2
EndSplineSet
EndChar

StartChar: u1D5C7.superior
Encoding: 1114161 -1 111
Width: 319
VWidth: 917
Flags: W
HStem: 589 48<141.126 208.513>
VStem: 29 64<366.129 553.562 567 627.361> 216 64<366.129 583.906>
LayerCount: 2
Fore
SplineSet
280 480 m 0
 280 419 282 410 288 364 c 1
 286 361 l 1
 276 363 258 364 248 364 c 0
 238 364 221 363 211 361 c 1
 209 364 l 1
 215 407 216 420 216 480 c 2
 216 508 l 2
 216 573 205.5 589 169 589 c 0
 140 589 126 571 93 523 c 1
 93 480 l 2
 93 419 94 410 100 364 c 1
 98 361 l 1
 88 363 71 364 61 364 c 0
 51 364 33 363 23 361 c 1
 22 364 l 1
 28 407 29 429 29 480 c 2
 29 502 l 2
 29 562 28 594 22 629 c 1
 23 631 l 1
 41 629 70 630 88 634 c 0
 92 634 93 632 93 626 c 2
 93 567 l 1
 94 565 l 1
 145 625 163 637 193 637 c 0
 262.5 637 280 593 280 510 c 0
 280 503 280 490 280 480 c 0
EndSplineSet
EndChar

StartChar: u1D5C8.superior
Encoding: 1114162 -1 112
Width: 359
VWidth: 608
Flags: W
HStem: 370 31<145.991 222.035> 617 31<136.591 217.503>
VStem: 38 79<428.132 586.106> 241 80<432.649 589.233>
LayerCount: 2
Fore
SplineSet
181 648 m 0
 265.4 648 319 593.8 319 509 c 0
 319 428.7 260.2 370 179 370 c 0
 98.8 370 40 423.4 40 503 c 0
 40 590.1 94.7 648 181 648 c 0
114 517 m 0
 114 439.7 140.7 399 188 399 c 0
 223.3 399 244 431.3 244 492 c 0
 244 564.4 236.5 619 176 619 c 0
 125.3 619 114 575.6 114 517 c 0
EndSplineSet
Colour: ff00ff
EndChar

StartChar: u1D5C9.superior
Encoding: 1114163 -1 113
Width: 392
Flags: W
HStem: 358 31<164.935 249.555> 589 47<181.739 258.16>
VStem: 70 84<579.012 620> 76 71<221.291 375 402.234 563.336> 274 78<427.281 575.05>
LayerCount: 2
Fore
SplineSet
147 417 m 1
 169.7 398.3 191.7 389 213 389 c 0
 233.7 389 249.3 399 260 419 c 0
 269.3 437.7 274 462.3 274 493 c 0
 274 557 255.3 589 218 589 c 0
 206.7 589 194 583.7 180 573 c 0
 164.7 561.7 153.7 548 147 532 c 1
 147 417 l 1
76 509 m 2
 76 559 74 595.7 70 619 c 1
 71 620 l 1
 102.3 622.7 128 628 148 636 c 1
 152 636 154 634 154 630 c 0
 148 596 145.7 579 147 579 c 2
 150 577 l 1
 175.3 616.3 204.7 636 238 636 c 0
 266 636 289.3 628.7 308 614 c 0
 337.3 590 352 555 352 509 c 0
 352 466.3 338 430.3 310 401 c 0
 282.7 372.3 250 358 212 358 c 0
 186.7 358 165 363.7 147 375 c 1
 147 344 l 2
 147 288.7 149 247.3 153 220 c 1
 152 218 l 1
 139.3 219.3 126 220 112 220 c 0
 97.3 220 83.7 219.3 71 218 c 1
 70 220 l 1
 74 246 76 287.3 76 344 c 2
 76 509 l 2
EndSplineSet
EndChar

StartChar: u1D5CA.superior
Encoding: 1114164 -1 114
Width: 386
Flags: W
HStem: 357 39<144.804 235.292> 601 33<141.264 220.396>
VStem: 39 81<418.864 564.585> 241 71<221.291 380 400.254 585.404>
LayerCount: 2
Fore
SplineSet
241 559 m 1
 224.3 587 204 601 180 601 c 0
 140 601 120 568.3 120 503 c 0
 120 431.7 144.7 396 194 396 c 0
 211.3 396 227 401.3 241 412 c 1
 241 559 l 1
241 380 m 1
 219.7 364.7 195 357 167 357 c 0
 125.7 357 95 367.3 75 388 c 1
 51 414.7 39 449 39 491 c 0
 39 530.3 54.3 564.3 85 593 c 0
 115 620.3 149.3 634 188 634 c 0
 223.3 634 250.3 625.7 269 609 c 1
 278 624 l 2
 282.7 632 289.3 636 298 636 c 0
 307.3 636 312 631 312 621 c 2
 312 343 l 2
 312 288.3 314 247.3 318 220 c 1
 317 218 l 1
 304.3 219.3 291 220 277 220 c 0
 262.3 220 248.7 219.3 236 218 c 1
 235 220 l 1
 239 246 241 287 241 343 c 2
 241 380 l 1
EndSplineSet
EndChar

StartChar: u1D5CB.superior
Encoding: 1114165 -1 115
Width: 282
Flags: MW
TeX: 57 0
LayerCount: 2
Fore
SplineSet
158 581 m 1
 182.7 617.7 208.7 636 236 636 c 0
 242.7 636 251 634.7 261 632 c 1
 264 629 l 1
 251 568 l 1
 246 567 l 1
 236 575 224 579 210 579 c 0
 200.7 579 191 575.3 181 568 c 0
 165.7 557.3 158 541.7 158 521 c 2
 158 476 l 2
 158 430.7 160.3 393.3 165 364 c 1
 163 362 l 1
 147.7 363.3 133 364 119 364 c 0
 104.3 364 91.3 363.3 80 362 c 1
 79 364 l 1
 83 392 85 429.3 85 476 c 2
 85 520 l 2
 85 570 79 606.3 75 629 c 1
 76 631 l 1
 105.5 630.5 126.5 632.5 151 636 c 0
 154.3 636 156 634 156 630 c 0
 156 618 156 603 156 583 c 1
 158 581 l 1
EndSplineSet
Colour: ff00ff
EndChar

StartChar: u1D5CC.superior
Encoding: 1114166 -1 116
Width: 276
Flags: W
HStem: 358 27<89.0145 163.547> 375 59<48 73.5723> 562 58<192.5 215> 608 28<113.902 181.925>
VStem: 47 61<536.434 605.429> 173 65<391.827 464.412>
LayerCount: 2
Fore
SplineSet
60 435 m 1
 77.3 401.7 99.7 385 127 385 c 0
 157.7 385 173 399.3 173 428 c 0
 173 451.3 155.7 468 121 478 c 0
 71.7 492 47 519.3 47 560 c 0
 47 581.3 57 599.3 77 614 c 0
 97 628.7 121.3 636 150 636 c 0
 181.3 636 206.7 630.7 226 620 c 1
 227 618 l 1
 215 562 l 1
 205 562 l 1
 190.3 592.7 171.3 608 148 608 c 0
 121.3 608 108 596 108 572 c 0
 108 550 121 536 147 530 c 0
 207.7 516 238 486 238 440 c 0
 238 420 228.7 402 210 386 c 0
 188.7 367.3 159.3 358 122 358 c 0
 96 358 68 363.7 38 375 c 1
 48 434 l 1
 60 435 l 1
EndSplineSet
Colour: ff00ff
EndChar

StartChar: u1D5CD.superior
Encoding: 1114167 -1 117
Width: 222
Flags: W
HStem: 358 36<106.667 188.456> 601 29<11.8613 60 131 201.945>
VStem: 60 71<394.339 601 630 694>
LayerCount: 2
Fore
SplineSet
19 601 m 2
 13.7 601 11 604 11 610 c 0
 11 614 12.3 618.3 15 623 c 0
 17.7 627.7 20.7 630 24 630 c 2
 60 630 l 1
 60 654 58.7 674.7 56 692 c 1
 57 694 l 1
 60.3 694.7 84.3 704 129 722 c 1
 132.3 722 134 720 134 716 c 0
 132 686 131 657.3 131 630 c 1
 197 630 l 2
 200.3 630 202 628.7 202 626 c 2
 202 609 l 2
 202 603.7 197.3 601 188 601 c 2
 131 601 l 1
 130 532 l 2
 129.3 510 129 481 129 445 c 0
 129 411 136.7 394 152 394 c 0
 166 394 178 396.7 188 402 c 1
 195.3 397.3 199 390.7 199 382 c 1
 177 366 149.3 358 116 358 c 0
 97.3 358 82.3 364.3 71 377 c 0
 61 389 56 402.7 56 418 c 2
 60 601 l 1
 19 601 l 2
EndSplineSet
EndChar

StartChar: u1D5CE.superior
Encoding: 1114168 -1 118
Width: 400
Flags: MW
LayerCount: 2
Fore
SplineSet
247 404 m 1
 218.3 373.3 187.7 358 155 358 c 0
 126.3 358 104.3 366.7 89 384 c 0
 75 399.3 68.3 418.7 69 442 c 2
 70 519 l 2
 70.7 553 69 590 65 630 c 1
 66 632 l 1
 79.3 630.7 93 630 107 630 c 0
 121.7 630 135 630.7 147 632 c 1
 148 630 l 1
 146.7 622.7 145 585.7 143 519 c 2
 142 463 l 2
 141.3 425 153 406 177 406 c 0
 192.3 406 207.3 412 222 424 c 0
 238.7 437.3 247 452.3 247 469 c 2
 247 519 l 2
 247 569.7 245.3 606.7 242 630 c 1
 243 632 l 1
 255.7 630.7 269 630 283 630 c 0
 297.7 630 311.7 630.7 325 632 c 1
 325 630 l 1
 321.7 608 320 571 320 519 c 2
 320 483 l 2
 320 441.7 323.3 402 330 364 c 1
 329 362 l 1
 321 363.3 308 364 290 364 c 0
 277.3 364 266 363.3 256 362 c 0
 252.7 362 251 362.7 251 364 c 2
 248 404 l 1
 247 404 l 1
EndSplineSet
EndChar

StartChar: u1D5CF.superior
Encoding: 1114169 -1 119
Width: 331
Flags: W
HStem: 362 270
VStem: 20 291
LayerCount: 2
Fore
SplineSet
20 632 m 1
 26.7 630.7 40.7 630 62 630 c 0
 86.7 630 101.7 630.7 107 632 c 1
 134.3 546.7 158 480 178 432 c 1
 180 432 l 1
 193.3 461.3 218.3 528 255 632 c 1
 259 630.7 268 630 282 630 c 0
 298 630 307.7 630.7 311 632 c 1
 258.3 520 218.3 430 191 362 c 1
 187 363.3 178.3 364 165 364 c 0
 146.3 364 135 363.3 131 362 c 1
 89 472.7 52 562.7 20 632 c 1
EndSplineSet
EndChar

StartChar: u1D5D0.superior
Encoding: 1114170 -1 120
Width: 519
Flags: MW
TeX: 57 0
LayerCount: 2
Fore
SplineSet
20 631 m 1
 26.7 630.3 41.7 630 65 630 c 0
 85.7 630 98.7 630.3 104 631 c 1
 130.7 546.3 156.7 476 182 420 c 1
 188 420 l 1
 205.3 456.7 223.7 500.7 243 552 c 1
 208 632 l 1
 214.7 630.7 228.3 630 249 630 c 0
 272.3 630 286.7 630.7 292 632 c 1
 318.7 546.7 342.3 480 363 432 c 1
 368 432 l 1
 380.7 461.3 405.7 528 443 632 c 1
 447 630.7 456 630 470 630 c 0
 485.3 630 495 630.7 499 632 c 1
 446.3 520 406.3 430 379 362 c 1
 375 363.3 366.3 364 353 364 c 0
 334.3 364 323 363.3 319 362 c 1
 262 506 l 1
 236.7 452.7 216.3 404.7 201 362 c 1
 197 363.3 184.7 364 164 364 c 0
 146.7 364 136 363.3 132 362 c 1
 94 460.7 56.7 550.3 20 631 c 1
EndSplineSet
Colour: ff00ff
EndChar

StartChar: u1D5D1.superior
Encoding: 1114171 -1 121
Width: 327
Flags: W
HStem: 362 270
VStem: 20 287
DStem2: 22 362 84 362 0.572315 0.820034<24.1784 152.552> 170 546 126 492 0.597206 -0.802088<-101.635 0 59.2368 174.51>
LayerCount: 2
Fore
SplineSet
20 632 m 1
 26.7 630.7 42.7 630 68 630 c 0
 90.7 630 105.7 630.7 113 632 c 1
 128.3 606.7 147.3 578 170 546 c 1
 197.3 581.3 218.7 610 234 632 c 1
 238.7 630.7 250 630 268 630 c 0
 282.7 630 292 630.7 296 632 c 1
 195 514 l 1
 203 503 l 1
 228.3 466.3 263 419.3 307 362 c 1
 301 363.3 286.7 364 264 364 c 0
 238.7 364 223 363.3 217 362 c 1
 204.3 382.7 182.3 414.7 151 458 c 1
 84 362 l 1
 80 363.3 71 364 57 364 c 0
 38.3 364 26.7 363.3 22 362 c 1
 126 492 l 1
 20 632 l 1
EndSplineSet
Colour: ff00ff
EndChar

StartChar: u1D5D2.superior
Encoding: 1114172 -1 122
Width: 333
Flags: W
TeX: 57 0
LayerCount: 2
Fore
SplineSet
68 630 m 0
 88 630 100.3 630.7 105 632 c 1
 118.3 591.3 142.7 528.7 178 444 c 1
 202 498 225.7 560.7 249 632 c 1
 252.3 630.7 262.7 630 280 630 c 0
 292.7 630 301 630.7 305 632 c 1
 216.3 450.7 159.3 318.7 134 236 c 1
 127.3 238 117.7 239 105 239 c 0
 90.3 239 79.7 238 73 236 c 1
 98.3 278.7 120.3 321.7 139 365 c 1
 138 369 l 1
 108 447 71.3 534.7 28 632 c 1
 33.3 630.7 46.7 630 68 630 c 0
EndSplineSet
Colour: ff00ff
EndChar

StartChar: u1D5D3.superior
Encoding: 1114173 -1 123
Width: 297
Flags: W
HStem: 362 45<122.313 271> 363 37<120 268.594> 593 36<46.9391 176>
VStem: 22 251
DStem2: 34 383 120 400 0.563001 0.826456<62.4678 253.502>
LayerCount: 2
Fore
SplineSet
176 593 m 1
 130 591.6 86.3 589.3 45 586 c 1
 43 588 l 1
 44.3 594.7 45 601.7 45 609 c 2
 43 629 l 1
 45 631 l 1
 53.7 629.7 65 629 79 629 c 2
 223 629 l 2
 230.3 629 240.7 629.7 254 631 c 2
 273 633 l 2
 275 633 276 631.7 276 629 c 1
 273.3 625.7 267.3 617 258 603 c 2
 120 400 l 1
 169.3 400.7 219.7 403 271 407 c 1
 272 405 l 1
 271.3 398.3 271 391 271 383 c 2
 272 363 l 1
 271 362 l 1
 261.7 362.7 250 363 236 363 c 2
 96 363 l 2
 84.7 363 60 362.7 22 362 c 1
 21 368 l 1
 26.3 373.3 30.7 378.3 34 383 c 2
 176 593 l 1
EndSplineSet
EndChar

StartChar: u1D7E2.superior
Encoding: 1114174 -1 124
Width: 307
VWidth: 407
Flags: W
HStem: 370 23<127.418 173.707> 676 24<128.385 177.938>
VStem: 39 63<428.142 631.729> 201 62<428.672 637.026>
LayerCount: 2
Fore
SplineSet
102 526 m 0
 102 437.3 118.3 393 151 393 c 0
 184.3 393 201 444.3 201 547 c 0
 201 585 198.3 613.7 193 633 c 0
 185.7 661.7 172 676 152 676 c 0
 118.7 676 102 626 102 526 c 0
66 418 m 0
 48 447.3 39 485 39 531 c 0
 39 581 50.7 622.3 74 655 c 0
 96 685 122 700 152 700 c 0
 182.7 700 208.3 685.7 229 657 c 0
 251.7 626.3 263 586 263 536 c 0
 263 479.3 251 436.3 227 407 c 0
 206.3 382.3 180.7 370 150 370 c 0
 114 370 86 386 66 418 c 0
EndSplineSet
Colour: ff00ff
EndChar

StartChar: u1D7E3.superior
Encoding: 1114175 -1 125
Width: 384
Flags: W
HStem: 625 23<113 151.946> 668 20G<212.333 247>
VStem: 181 62<365.317 627.991>
LayerCount: 2
Fore
SplineSet
243 464 m 2
 243 425.3 245.3 392 250 364 c 1
 249 362 l 1
 237 363.3 224.3 364 211 364 c 0
 198.3 364 186.3 363.3 175 362 c 1
 175 364 l 1
 179 388 181 421.3 181 464 c 2
 181 594 l 2
 181 616.7 177.7 628 171 628 c 0
 147.7 628 128.3 627 113 625 c 1
 112 648 l 1
 134 653.3 178.7 666.7 246 688 c 0
 248 688 249 687 249 685 c 0
 245 657.7 243 629 243 599 c 2
 243 464 l 2
EndSplineSet
EndChar

StartChar: u1D7E4.superior
Encoding: 1114176 -1 126
Width: 311
Flags: W
HStem: 362 55<116 253.726> 660 29<96.1547 166.655>
VStem: 184 72<549.387 650.552>
DStem2: 111 473 151 463 0.713809 0.700341<-33.5806 110.914>
LayerCount: 2
Fore
SplineSet
71 615 m 1
 58 615 l 1
 47 657 l 1
 49 659 l 1
 71 679 102 689 142 689 c 0
 176 689 203 682 223 668 c 0
 245 653.3 256 632.3 256 605 c 0
 256 577.7 238.7 547.7 204 515 c 2
 151 463 l 2
 127.7 439.7 116 424.3 116 417 c 1
 159 417 l 2
 179 417 212 418.7 258 422 c 1
 256 412.7 255 401 255 387 c 0
 255 379.7 256 371.3 258 362 c 1
 222.7 363.3 192 364 166 364 c 0
 146.7 364 104.3 363.3 39 362 c 1
 38 364 l 1
 38 386.7 62.3 423 111 473 c 1
 151 512 l 2
 173 534.7 184 566 184 606 c 0
 184 621.3 178.7 634.3 168 645 c 0
 158.7 655 148.7 660 138 660 c 0
 110 660 87.7 645 71 615 c 1
EndSplineSet
EndChar

StartChar: u1D7E5.superior
Encoding: 1114177 -1 127
Width: 313
Flags: MW
LayerCount: 2
Fore
SplineSet
171 399 m 0
 185.7 411 193 430.7 193 458 c 0
 193 499.3 173.3 520 134 520 c 0
 124.7 520 118 519.7 114 519 c 1
 114 544 l 1
 162.7 546 187 568.7 187 612 c 0
 187 626 183.3 637.7 176 647 c 0
 168 656.3 159 661 149 661 c 0
 131 661 117.3 657 108 649 c 0
 100 643 91.3 631.3 82 614 c 1
 69 614 l 1
 58 656 l 1
 59 659 l 1
 81.7 678.3 113 688 153 688 c 0
 180.3 688 202.7 683 220 673 c 0
 239.3 661 249 643.3 249 620 c 0
 249 576.7 228 549.7 186 539 c 1
 186 537 l 1
 208 535 226 528 240 516 c 0
 256.7 502 265 483.3 265 460 c 0
 265 425.3 251 399 223 381 c 0
 199.7 365.7 170 358 134 358 c 0
 99.3 358 70.7 368 48 388 c 1
 46 390 l 1
 58 432 l 1
 70 433 l 1
 80.7 414.3 88.7 402.7 94 398 c 0
 103.3 390 117 386 135 386 c 0
 149 386 161 390.3 171 399 c 0
EndSplineSet
EndChar

StartChar: u1D7E6.superior
Encoding: 1114178 -1 128
Width: 288
VWidth: 407
Flags: W
HStem: 454 35<60 157 220 263.804>
VStem: 157 63<377.219 454 489 642 652.673 693.75>
DStem2: 25 486 60 489 0.535446 0.844569<21.2743 202.432>
LayerCount: 2
Fore
SplineSet
49 454 m 2
 29.7 454 19.7 456.3 19 461 c 0
 19 472.3 21 480.7 25 486 c 0
 65.7 540.7 111.3 610.3 162 695 c 1
 162 697 l 1
 166 695.7 174.7 695 188 695 c 0
 200.7 695 212.7 695.7 224 697 c 1
 225 695 l 1
 221.7 668.3 220 642 220 616 c 2
 220 489 l 1
 258 489 l 2
 262.7 489 265 485.3 265 478 c 0
 265 474.7 263.7 470 261 464 c 0
 257 457.3 253.3 454 250 454 c 2
 220 454 l 1
 220 428 221.7 402 225 376 c 1
 224 374 l 1
 212.7 375.3 200.7 376 188 376 c 0
 174.7 376 162.3 375.3 151 374 c 1
 151 376 l 1
 155 406 157 432 157 454 c 1
 49 454 l 2
60 489 m 1
 157 489 l 1
 157 642 l 1
 60 489 l 1
EndSplineSet
Colour: ff00ff
EndChar

StartChar: u1D7E7.superior
Encoding: 1114179 -1 129
Width: 325
VWidth: 404
Flags: W
HStem: 370 27<109.613 176.831> 547 31<110.679 179.994> 643 51<117.676 246>
VStem: 196 65<413.503 538.02>
DStem2: 76 538 110 569 0.105655 0.994403<34.4188 112.891>
LayerCount: 2
Fore
SplineSet
59 400 m 1
 57 402 l 1
 68 444 l 1
 81 445 l 1
 99 413 120.7 397 146 397 c 0
 159.3 397 170.7 402.7 180 414 c 0
 190.7 427.3 196 446.3 196 471 c 0
 196 521.7 179 547 145 547 c 0
 127 547 107.7 542.7 87 534 c 1
 76 538 l 1
 93 698 l 1
 117.7 695.3 137.7 694 153 694 c 0
 181.7 694 214.3 696 251 700 c 1
 254 699 l 1
 246 646 l 1
 224.7 644 202.7 643 180 643 c 0
 162.7 643 142 644.3 118 647 c 1
 110 569 l 1
 126 575 142.3 578 159 578 c 0
 188.3 578 213 568 233 548 c 0
 251.7 529.3 261 506.7 261 480 c 0
 261 446.7 249.7 419.7 227 399 c 0
 205 379.7 177.7 370 145 370 c 0
 109.7 370 81 380 59 400 c 1
EndSplineSet
Colour: ff00ff
EndChar

StartChar: u1D7E8.superior
Encoding: 1114180 -1 130
Width: 307
VWidth: 407
Flags: W
HStem: 370 24<133.21 187.082> 542 25<117.525 188.066> 680 20<205.298 254>
VStem: 45 65<415.451 558.951> 204 67<410.488 524.429>
LayerCount: 2
Fore
SplineSet
165 567 m 0
 202.3 567 230.3 556.7 249 536 c 0
 263.7 518.7 271 497 271 471 c 0
 271 445 262.3 422.7 245 404 c 0
 225 381.3 197.3 370 162 370 c 0
 134.7 370 112.7 375.7 96 387 c 0
 62 408.3 45 447.7 45 505 c 0
 45 551.7 62 594 96 632 c 0
 136 677.3 188.7 700 254 700 c 1
 256 680 l 1
 224 677.3 199 670.3 181 659 c 0
 145.7 638.3 123.7 603 115 553 c 1
 129 562.3 145.7 567 165 567 c 0
110 503 m 0
 110 460.3 115.7 430.3 127 413 c 0
 135 400.3 147.7 394 165 394 c 0
 175 394 183.7 399.7 191 411 c 0
 199.7 424.3 204 443 204 467 c 0
 204 488.3 202 504.3 198 515 c 0
 190 533 175.3 542 154 542 c 0
 137.3 542 123 537 111 527 c 1
 110.3 519 110 511 110 503 c 0
EndSplineSet
Colour: ff00ff
EndChar

StartChar: u1D7E9.superior
Encoding: 1114181 -1 131
Width: 328
VWidth: 407
Flags: W
HStem: 649 47<82.0198 226>
VStem: 79 201
LayerCount: 2
Fore
SplineSet
79 643 m 1
 81 656.3 82 666 82 672 c 0
 82 676.7 81 685.7 79 699 c 1
 96.3 697 149.7 696 239 696 c 0
 251 696 262.3 697.3 273 700 c 1
 280 689 l 1
 230 567.7 190 462 160 372 c 1
 113 370 l 1
 111 374 l 1
 138.3 434.7 176.7 526.3 226 649 c 1
 192.7 649 143.7 647 79 643 c 1
EndSplineSet
Colour: ff00ff
EndChar

StartChar: u1D7EA.superior
Encoding: 1114182 -1 132
Width: 306
VWidth: 407
Flags: W
HStem: 370 21<129.926 193.049> 679 21<132.02 188.744>
VStem: 47 60<402.441 502.592> 65 56<592.12 675.804> 201 56<587.216 675.45> 212 61<403.867 499.082>
DStem2: 170 574 116 549 0.843158 -0.537666<-71.5338 -21.2745 -4.38622 5.58232 23.8528 93.6629>
LayerCount: 2
Fore
SplineSet
121 634 m 0
 121 614.7 132 598 154 584 c 2
 170 574 l 1
 190.7 589.3 201 607.7 201 629 c 0
 201 662.3 187.7 679 161 679 c 0
 134.3 679 121 664 121 634 c 0
190 561 m 1
 223 540 l 2
 256.3 518.7 273 492.3 273 461 c 0
 273 429.7 259 405 231 387 c 0
 212.3 375.7 187.3 370 156 370 c 0
 125.3 370 100 377 80 391 c 0
 58 406.3 47 427 47 453 c 0
 47 487 73 517 125 543 c 1
 116 549 l 1
 82 570.3 65 595.3 65 624 c 0
 65 647.3 73 665.7 89 679 c 0
 106.3 693 131.3 700 164 700 c 0
 193.3 700 216.3 694 233 682 c 0
 249 670 257 653.7 257 633 c 0
 257 602.3 234.7 578.3 190 561 c 1
212 450 m 0
 212 476 197.7 498 169 516 c 2
 144 531 l 1
 119.3 513 107 487 107 453 c 0
 107 434.3 112.3 419.3 123 408 c 0
 133 396.7 144.3 391 157 391 c 0
 193.7 391 212 410.7 212 450 c 0
EndSplineSet
Colour: ff00ff
EndChar

StartChar: u1D7EB.superior
Encoding: 1114183 -1 133
Width: 307
VWidth: 407
Flags: W
HStem: 370 20<73 122.226> 502 25<140.622 209.033> 676 24<140.214 194.926>
VStem: 57 66<545.54 660.355> 218 65<511.322 653.885>
LayerCount: 2
Fore
SplineSet
163 502 m 0
 125 502 97 512.7 79 534 c 0
 64.3 550.7 57 572.3 57 599 c 0
 57 624.3 65.3 646.7 82 666 c 0
 102 688.7 130 700 166 700 c 0
 192.7 700 214.7 694.3 232 683 c 0
 266 661 283 621.7 283 565 c 0
 283 518.3 265.7 475.7 231 437 c 0
 191 392.3 138.3 370 73 370 c 1
 72 390 l 1
 103.3 392.7 128.3 399.7 147 411 c 0
 181.7 431 203.7 466.3 213 517 c 1
 199 507 182.3 502 163 502 c 0
218 567 m 0
 218 609.7 212.3 639.7 201 657 c 0
 192.3 669.7 179.7 676 163 676 c 0
 152.3 676 143.3 670.3 136 659 c 0
 127.3 645.7 123 626.7 123 602 c 0
 123 581.3 125.3 565.7 130 555 c 0
 137.3 536.3 152 527 174 527 c 0
 190 527 204.3 532 217 542 c 1
 217.7 550.7 218 559 218 567 c 0
EndSplineSet
Colour: ff00ff
EndChar
